<svg width="105" height="16" viewBox="0 0 105 16" fill="none" xmlns="http://www.w3.org/2000/svg">
<rect x="19.6699" y="3.41895" width="10.7828" height="2.39619" rx="1.19809" transform="rotate(-180 19.6699 3.41895)" fill="#666666"/>
<rect x="19.6699" y="9.40918" width="19.1695" height="2.39619" rx="1.1981" transform="rotate(-180 19.6699 9.40918)" fill="#666666"/>
<rect x="19.6699" y="15.3994" width="15.5752" height="2.39619" rx="1.19809" transform="rotate(-180 19.6699 15.3994)" fill="#666666"/>
<g clip-path="url(#clip0)">
<path d="M28.844 3.68706V7.78281H33.6839V9.77749H28.844V15.602H26.5176V1.69238H34.085V3.68706H28.844Z" fill="#666666"/>
<path d="M40.7967 15.5756V14.2192H40.7699C40.0747 15.283 39.0853 15.815 37.8285 15.815C36.8392 15.815 36.0637 15.549 35.5022 15.0171C34.9406 14.4852 34.6465 13.7671 34.6465 12.8628C34.6465 11.932 34.9139 11.1873 35.4754 10.6288C36.037 10.0703 36.8392 9.72453 37.9088 9.59155L40.8234 9.19261C40.8234 7.83623 40.1817 7.17133 38.9249 7.17133C38.3099 7.17133 37.7216 7.27772 37.16 7.46389C36.5985 7.65006 36.0637 7.94261 35.6359 8.26176V6.29368C35.9835 6.08091 36.5183 5.86814 37.2403 5.68197C37.9622 5.4958 38.604 5.41602 39.1655 5.41602C40.4491 5.41602 41.4117 5.73516 42.0535 6.40006C42.6952 7.06495 43.0161 8.0224 43.0161 9.2724V15.549H40.7967V15.5756ZM36.8392 12.6501C36.8392 13.0756 36.9996 13.4213 37.2937 13.6607C37.6146 13.9267 37.989 14.033 38.4703 14.033C39.1388 14.033 39.7003 13.7937 40.1282 13.3415C40.556 12.8894 40.7699 12.3043 40.7699 11.6128V10.7086L38.604 11.0011C37.9355 11.1075 37.4542 11.2671 37.1868 11.5064C36.9729 11.7724 36.8392 12.1447 36.8392 12.6501Z" fill="#666666"/>
<path d="M47.9632 2.17158C47.9632 2.54392 47.8295 2.83648 47.5621 3.10244C47.2947 3.36839 46.9738 3.44818 46.5727 3.44818C46.1716 3.44818 45.8775 3.3152 45.6101 3.07584C45.3427 2.83648 45.209 2.51733 45.209 2.17158C45.209 1.79924 45.3427 1.48009 45.6101 1.24073C45.8775 1.00137 46.1984 0.841797 46.5727 0.841797C46.9738 0.841797 47.2947 0.974776 47.5621 1.24073C47.8295 1.50669 47.9632 1.79924 47.9632 2.17158ZM45.4229 15.5758V5.65563H47.6691V15.5758H45.4229Z" fill="#666666"/>
<path d="M56.3331 7.83675C56.2261 7.75696 56.0122 7.67717 55.7715 7.59739C55.5041 7.5176 55.2635 7.491 55.0496 7.491C54.3811 7.491 53.873 7.75696 53.4719 8.31547C53.0708 8.87398 52.8569 9.59207 52.8569 10.4963V15.5761H50.584V5.6559H52.8301V7.57079H52.8569C53.0708 6.9059 53.4184 6.40058 53.873 6.02824C54.3276 5.6559 54.8356 5.46973 55.4239 5.46973C55.825 5.46973 56.1192 5.52292 56.3331 5.60271V7.83675Z" fill="#666666"/>
<path d="M58.3652 15.5754V1.69238H60.6916V15.602H58.3652V15.5754Z" fill="#666666"/>
<path d="M64.8895 11.2934C64.943 12.1977 65.2104 12.8892 65.7184 13.3679C66.2265 13.8466 66.9485 14.086 67.8844 14.086C68.4459 14.086 68.9807 14.0062 69.5155 13.82C70.0236 13.6339 70.4781 13.4211 70.8792 13.1285V15.0168C70.5049 15.2562 69.9968 15.469 69.3551 15.6285C68.7133 15.7881 68.0448 15.8679 67.3496 15.8679C65.8254 15.8679 64.6756 15.4158 63.8466 14.5115C63.0177 13.6073 62.5898 12.3573 62.5898 10.7615C62.5898 9.6977 62.8038 8.76685 63.2049 7.96898C63.606 7.17111 64.1942 6.5594 64.9162 6.10728C65.6382 5.65515 66.4404 5.44238 67.3228 5.44238C68.6866 5.44238 69.7562 5.86791 70.5316 6.69238C71.3071 7.51685 71.6814 8.68706 71.6814 10.1764V11.2934H64.8895ZM69.4353 9.59132C69.4353 8.79345 69.2481 8.20834 68.8737 7.78281C68.4994 7.35728 67.9913 7.17111 67.3228 7.17111C66.7078 7.17111 66.173 7.38387 65.7452 7.836C65.2906 8.28813 65.0232 8.87323 64.8895 9.59132H69.4353Z" fill="#666666"/>
<path d="M79.115 15.5756V14.2192H79.0883C78.3931 15.283 77.4037 15.815 76.1469 15.815C75.1575 15.815 74.3821 15.549 73.8205 15.0171C73.259 14.4852 72.9648 13.7671 72.9648 12.8628C72.9648 11.932 73.2322 11.1873 73.7938 10.6288C74.3553 10.0703 75.1575 9.72453 76.2271 9.59155L79.1418 9.19261C79.1418 7.83623 78.5 7.17133 77.2432 7.17133C76.6282 7.17133 76.0399 7.27772 75.4784 7.46389C74.9169 7.65006 74.3821 7.94261 73.9542 8.26176V6.29368C74.3018 6.08091 74.8366 5.86814 75.5586 5.68197C76.2806 5.4958 76.9224 5.41602 77.4839 5.41602C78.7674 5.41602 79.7301 5.73516 80.3718 6.40006C81.0136 7.06495 81.3345 8.0224 81.3345 9.2724V15.549H79.115V15.5756ZM75.1843 12.6501C75.1843 13.0756 75.3447 13.4213 75.6388 13.6607C75.9597 13.9267 76.3341 14.033 76.8154 14.033C77.4839 14.033 78.0454 13.7937 78.4733 13.3415C78.9011 12.8894 79.115 12.3043 79.115 11.6128V10.7086L76.9491 11.0011C76.2806 11.1075 75.7993 11.2671 75.5319 11.5064C75.318 11.7724 75.1843 12.1447 75.1843 12.6501Z" fill="#666666"/>
<path d="M89.3561 7.83675C89.2492 7.75696 89.0353 7.67717 88.7946 7.59739C88.5272 7.5176 88.2865 7.491 88.0726 7.491C87.4041 7.491 86.8961 7.75696 86.495 8.31547C86.0939 8.87398 85.8799 9.59207 85.8799 10.4963V15.5761H83.6338V5.6559H85.8799V7.57079H85.9067C86.1206 6.9059 86.4682 6.40058 86.9228 6.02824C87.3774 5.6559 87.8854 5.46973 88.4737 5.46973C88.8748 5.46973 89.169 5.52292 89.3829 5.60271V7.83675H89.3561Z" fill="#666666"/>
<path d="M97.6458 15.5756V10.0171C97.6458 9.08623 97.4854 8.39474 97.1645 7.94261C96.8436 7.49048 96.3356 7.25112 95.6403 7.25112C94.9718 7.25112 94.3835 7.51708 93.9557 8.0224C93.5011 8.52772 93.2872 9.16601 93.2872 9.93729V15.5756H91.041V5.65538H93.2872V7.25112H93.3139C94.0626 6.02772 95.1322 5.41602 96.5495 5.41602C97.6191 5.41602 98.4213 5.76176 99.0096 6.42665C99.5978 7.09155 99.892 8.12878 99.892 9.48516V15.5756H97.6458Z" fill="#666666"/>
</g>
<defs>
<clipPath id="clip0">
<rect width="77.9204" height="15" fill="white" transform="translate(26.5176 0.841797)"/>
</clipPath>
</defs>
</svg>
