<svg width="129" height="48" viewBox="0 0 129 48" fill="none" xmlns="http://www.w3.org/2000/svg">
<path d="M0 24C0 10.7452 10.7452 0 24 0H105C118.255 0 129 10.7452 129 24V24C129 37.2548 118.255 48 105 48H24C10.7452 48 0 37.2548 0 24V24Z" fill="#F2F2F2"/>
<path fill-rule="evenodd" clip-rule="evenodd" d="M46 24.6361C45.9568 25.0067 45.9191 25.378 45.8695 25.7478C45.6502 27.3791 45.0923 28.8911 44.2186 30.2821C43.2421 31.8366 41.9975 33.135 40.4407 34.1231C39.6267 34.6397 38.7585 35.0453 37.846 35.3517C37.3405 35.5213 36.9908 35.2595 36.9883 34.7275C36.9833 33.6817 36.99 32.6358 36.9853 31.5899C36.9824 30.9527 36.9186 30.3251 36.5701 29.767C36.4684 29.6042 36.3397 29.4581 36.2191 29.2988C36.6875 29.2113 37.157 29.149 37.6131 29.0333C38.8376 28.7228 39.9323 28.182 40.6783 27.1139C41.2263 26.3293 41.4771 25.4281 41.5875 24.4887C41.6734 23.7586 41.6978 23.0261 41.5438 22.2993C41.3889 21.5679 41.0724 20.9135 40.5827 20.3487C40.4621 20.2096 40.4381 20.0973 40.4978 19.9174C40.8197 18.9455 40.685 17.9936 40.3234 17.061C40.3026 17.0076 40.2126 16.9578 40.1486 16.9483C39.7229 16.8847 39.3216 17.0048 38.9483 17.1809C38.3432 17.4666 37.7581 17.7941 37.159 18.0928C37.0578 18.1432 36.9183 18.1776 36.8136 18.1511C34.9355 17.6772 33.0608 17.6777 31.1824 18.1507C31.0726 18.1783 30.9171 18.1417 30.8187 18.079C30.0569 17.5936 29.2516 17.2097 28.376 16.9789C28.3609 16.9749 28.3462 16.9693 28.3309 16.9662C27.7804 16.8537 27.6798 16.9166 27.5229 17.4487C27.2695 18.3078 27.2237 19.1641 27.5253 20.0237C27.549 20.0911 27.521 20.2093 27.4723 20.2645C26.4832 21.3873 26.2488 22.7191 26.3725 24.1549C26.4475 25.0254 26.6493 25.861 27.0389 26.6467C27.5774 27.7323 28.4894 28.3962 29.5941 28.786C30.2876 29.0308 31.0228 29.1579 31.7506 29.3407C31.7562 29.3055 31.7604 29.3333 31.7485 29.3457C31.3738 29.7358 31.1644 30.204 31.0763 30.7336C31.0651 30.8006 31.0189 30.8963 30.9655 30.9164C30.1319 31.2298 29.2936 31.3947 28.4695 30.892C28.0949 30.6636 27.8215 30.3336 27.6008 29.9584C27.2548 29.3699 26.7669 28.9433 26.1114 28.7489C25.8755 28.679 25.6066 28.6968 25.3549 28.7114C25.1833 28.7215 25.1269 28.8499 25.242 28.9938C25.3482 29.1262 25.4562 29.2761 25.5982 29.3578C26.229 29.7206 26.5824 30.3003 26.871 30.9313C27.0431 31.3073 27.1905 31.6912 27.5094 31.9803C28.0173 32.4409 28.6329 32.6146 29.2929 32.6435C29.8515 32.668 30.412 32.6486 30.9978 32.6486C30.9969 32.6407 31.0086 32.6994 31.0093 32.7581C31.0177 33.3902 31.0262 34.0223 31.0308 34.6545C31.0352 35.273 30.6635 35.5288 30.0762 35.3251C27.0296 34.2684 24.7942 32.2674 23.3026 29.4394C22.1792 27.3098 21.8242 25.0224 22.0779 22.6349C22.3435 20.1351 23.3336 17.947 24.9855 16.0698C26.7122 14.1078 28.8617 12.8036 31.4306 12.2819C35.1627 11.5239 38.5713 12.285 41.5555 14.6812C43.818 16.4978 45.2182 18.8614 45.7833 21.7089C45.8665 22.1284 45.8981 22.5582 45.9552 22.9829C45.9663 23.0661 45.9849 23.1483 46 23.231V24.6361Z" fill="#333333"/>
<path d="M60.5232 29.09C62.5932 29.09 63.7632 27.92 63.7632 27.92L64.2132 29H65.4732V23.15H60.4332V24.77H63.8532C63.5832 26.3 62.3232 27.56 60.5232 27.56C58.6332 27.56 56.8332 25.76 56.8332 23.33C56.8332 20.9 58.6332 19.1 60.5232 19.1C62.1432 19.1 63.2232 20.18 63.5832 21.35H65.3832C64.8432 19.37 63.0432 17.57 60.5232 17.57C57.6432 17.57 55.1232 20.09 55.1232 23.33C55.1232 26.57 57.6432 29.09 60.5232 29.09ZM69.2518 20.9H67.6318V29H69.2518V20.9ZM68.4418 19.64C68.9818 19.64 69.4318 19.19 69.4318 18.65C69.4318 18.11 68.9818 17.66 68.4418 17.66C67.9018 17.66 67.4518 18.11 67.4518 18.65C67.4518 19.19 67.9018 19.64 68.4418 19.64ZM73.7511 22.43H75.5511V20.9H73.7511V18.74H72.4011V19.82C72.4011 20.45 71.9511 20.9 71.3211 20.9H70.6911V22.43H72.1311V26.3C72.1311 28.01 73.2111 29.09 74.6511 29.09C75.1911 29.09 75.5511 28.91 75.5511 28.91V27.47C75.5511 27.47 75.2811 27.56 75.0111 27.56C74.2911 27.56 73.7511 27.02 73.7511 26.3V22.43ZM84.6404 17.66V22.43H79.4204V17.66H77.7104V29H79.4204V24.05H84.6404V29H86.3504V17.66H84.6404ZM92.0182 29.09C93.6382 29.09 94.3582 28.19 94.3582 28.19L94.7182 29H95.8882V20.9H94.2682V25.58C94.2682 26.66 93.3682 27.56 92.2882 27.56C91.2982 27.56 90.3982 26.66 90.3982 25.58V20.9H88.7782V25.58C88.7782 27.65 90.2182 29.09 92.0182 29.09ZM102.002 29.09C104.162 29.09 105.872 27.38 105.872 24.95C105.872 22.52 104.162 20.81 102.002 20.81C100.472 20.81 99.7519 21.71 99.7519 21.71V17.66H98.1319V29H99.3019L99.6619 28.19C99.6619 28.19 100.382 29.09 102.002 29.09ZM101.912 22.34C103.172 22.34 104.252 23.42 104.252 24.95C104.252 26.48 103.172 27.56 101.912 27.56C100.652 27.56 99.5719 26.48 99.5719 24.95C99.5719 23.42 100.652 22.34 101.912 22.34Z" fill="#757575"/>
</svg>
