<svg width="129" height="48" viewBox="0 0 129 48" fill="none" xmlns="http://www.w3.org/2000/svg">
<path d="M0 24C0 10.7452 10.7452 0 24 0H105C118.255 0 129 10.7452 129 24C129 37.2548 118.255 48 105 48H24C10.7452 48 0 37.2548 0 24Z" fill="#F2F2F2"/>
<g clip-path="url(#clip0_2_20)">
<path d="M35.3746 15.773C33.7412 14.9997 31.9947 14.4377 30.1689 14.1177C29.9446 14.5279 29.6826 15.0797 29.502 15.5186C27.561 15.2233 25.6379 15.2233 23.7327 15.5186C23.5521 15.0797 23.2841 14.5279 23.0579 14.1177C21.23 14.4377 19.4816 15.0017 17.8482 15.7771C14.5537 20.8146 13.6606 25.7271 14.1072 30.5698C16.2922 32.221 18.4099 33.224 20.4917 33.8804C21.0058 33.1645 21.4642 32.4035 21.8591 31.6015C21.107 31.3123 20.3866 30.9554 19.7058 30.5411C19.8864 30.4057 20.0631 30.2642 20.2337 30.1186C24.3856 32.0836 28.8967 32.0836 32.999 30.1186C33.1716 30.2642 33.3482 30.4057 33.5269 30.5411C32.8441 30.9575 32.1218 31.3144 31.3696 31.6036C31.7645 32.4035 32.221 33.1666 32.737 33.8824C34.8209 33.226 36.9405 32.223 39.1255 30.5698C39.6495 24.9559 38.2305 20.0885 35.3746 15.773ZM22.4248 27.5916C21.1784 27.5916 20.1563 26.4142 20.1563 24.9805C20.1563 23.5467 21.1566 22.3674 22.4248 22.3674C23.693 22.3674 24.7151 23.5447 24.6932 24.9805C24.6952 26.4142 23.693 27.5916 22.4248 27.5916ZM30.8079 27.5916C29.5616 27.5916 28.5395 26.4142 28.5395 24.9805C28.5395 23.5467 29.5397 22.3674 30.8079 22.3674C32.0761 22.3674 33.0982 23.5447 33.0764 24.9805C33.0764 26.4142 32.0761 27.5916 30.8079 27.5916Z" fill="#5865F2"/>
<path d="M47.9074 19.1599H53.3253C54.6314 19.1599 55.7348 19.3712 56.64 19.7917C57.5428 20.2121 58.2197 20.7988 58.6683 21.5495C59.1166 22.3002 59.3428 23.1596 59.3428 24.1277C59.3428 25.0754 59.1086 25.9348 58.6403 26.704C58.1719 27.4752 57.4594 28.0844 56.5009 28.5336C55.5425 28.9828 54.3554 29.2084 52.9365 29.2084H47.9074V19.1599ZM52.8808 26.6547C53.7601 26.6547 54.437 26.4271 54.9091 25.9737C55.3816 25.5184 55.6179 24.899 55.6179 24.1134C55.6179 23.3852 55.4072 22.8047 54.9866 22.3699C54.566 21.9351 53.9289 21.7156 53.0773 21.7156H51.3824V26.6547H52.8808Z" fill="#5865F2"/>
<path d="M67.4542 29.1961C66.704 28.9951 66.0271 28.7038 65.4259 28.3202V25.9368C65.8804 26.2999 66.4895 26.5994 67.2536 26.8352C68.0177 27.0691 68.7562 27.186 69.4704 27.186C69.8039 27.186 70.056 27.1408 70.2265 27.0506C70.3974 26.9603 70.4829 26.8516 70.4829 26.7265C70.4829 26.5829 70.4372 26.464 70.3438 26.3675C70.2504 26.2712 70.0699 26.1911 69.8021 26.1235L68.1349 25.7358C67.1803 25.5061 66.5034 25.1882 66.1008 24.78C65.6978 24.3738 65.4972 23.8405 65.4972 23.1801C65.4972 22.6242 65.6719 22.1422 66.0254 21.7299C66.3764 21.3177 66.8766 20.9997 67.5255 20.7762C68.1747 20.5505 68.9326 20.4377 69.8039 20.4377C70.5818 20.4377 71.2943 20.5239 71.9436 20.6962C72.5924 20.8685 73.1282 21.0879 73.5551 21.3566V23.6108C73.1182 23.3421 72.618 23.1309 72.0466 22.9709C71.4769 22.8129 70.8917 22.735 70.2881 22.735C69.4168 22.735 68.9824 22.8888 68.9824 23.1944C68.9824 23.3381 69.0498 23.4447 69.1847 23.5165C69.3196 23.5883 69.5676 23.6621 69.927 23.7401L71.3161 23.9985C72.2234 24.1606 72.8999 24.4457 73.3444 24.8518C73.7892 25.2579 74.0113 25.8589 74.0113 26.6547C74.0113 27.5264 73.6443 28.2177 72.9079 28.7305C72.1715 29.2433 71.1276 29.4996 69.7741 29.4996C68.9782 29.4976 68.2045 29.3971 67.4542 29.1961Z" fill="#5865F2"/>
<path d="M77.2903 28.8945C76.4948 28.4924 75.8933 27.9468 75.4924 27.2577C75.0915 26.5685 74.8892 25.7932 74.8892 24.9317C74.8892 24.0702 75.0974 23.299 75.5142 22.6201C75.931 21.9411 76.5422 21.4078 77.3481 21.0202C78.1537 20.6325 79.1163 20.4397 80.2377 20.4397C81.6268 20.4397 82.78 20.7412 83.6969 21.3442V23.9718C83.3735 23.742 82.9961 23.5554 82.5655 23.4118C82.1349 23.2682 81.6745 23.1964 81.1823 23.1964C80.321 23.1964 79.6483 23.3585 79.162 23.6846C78.6756 24.0107 78.4318 24.4353 78.4318 24.9624C78.4318 25.4793 78.6677 25.9019 79.1402 26.2342C79.6126 26.5644 80.2972 26.7305 81.1961 26.7305C81.6586 26.7305 82.1152 26.6608 82.5655 26.5234C83.0141 26.3839 83.4012 26.2136 83.7246 26.0126V28.554C82.7066 29.1857 81.5258 29.5016 80.182 29.5016C79.0509 29.4975 78.0862 29.2965 77.2903 28.8945Z" fill="#5865F2"/>
<path d="M87.1621 28.8944C86.3603 28.4924 85.7491 27.9427 85.3281 27.2433C84.9075 26.5438 84.6952 25.7644 84.6952 24.9029C84.6952 24.0415 84.9055 23.2723 85.3281 22.5975C85.7508 21.9226 86.3582 21.3934 87.1562 21.0099C87.9517 20.6263 88.9026 20.4355 90.0039 20.4355C91.1055 20.4355 92.0561 20.6263 92.8519 21.0099C93.6478 21.3934 94.2552 21.9185 94.672 22.5892C95.0888 23.26 95.297 24.0291 95.297 24.9009C95.297 25.7623 95.0888 26.5418 94.672 27.2412C94.2552 27.9406 93.6458 28.4903 92.844 28.8924C92.0422 29.2944 91.0955 29.4954 90.0022 29.4954C88.9085 29.4954 87.9617 29.2964 87.1621 28.8944ZM91.3833 26.3469C91.7209 25.9982 91.8914 25.5367 91.8914 24.9624C91.8914 24.3881 91.7226 23.9307 91.3833 23.5922C91.0461 23.2518 90.5853 23.0815 90.0022 23.0815C89.4086 23.0815 88.9441 23.2518 88.6048 23.5922C88.2675 23.9327 88.0987 24.3881 88.0987 24.9624C88.0987 25.5367 88.2675 25.9982 88.6048 26.3469C88.9423 26.6956 89.4086 26.872 90.0022 26.872C90.5853 26.8699 91.0461 26.6956 91.3833 26.3469Z" fill="#5865F2"/>
<path d="M103.644 20.9688V24.0702C103.291 23.8302 102.835 23.7112 102.269 23.7112C101.529 23.7112 100.957 23.943 100.56 24.4065C100.161 24.8701 99.9628 25.5921 99.9628 26.5684V29.2103H96.5592V20.8109H99.8936V23.4815C100.078 22.5051 100.378 21.7852 100.79 21.3196C101.201 20.856 101.733 20.6243 102.38 20.6243C102.87 20.6243 103.291 20.7391 103.644 20.9688Z" fill="#5865F2"/>
<path d="M114.953 18.8726V29.2103H111.549V27.3294C111.261 28.037 110.825 28.5765 110.237 28.9457C109.65 29.3129 108.923 29.4974 108.062 29.4974C107.292 29.4974 106.621 29.3046 106.048 28.917C105.474 28.5293 105.032 27.9981 104.72 27.3232C104.411 26.6484 104.254 25.8854 104.254 25.0321C104.244 24.1522 104.408 23.3625 104.748 22.6631C105.085 21.9636 105.563 21.418 106.179 21.0262C106.794 20.6345 107.497 20.4376 108.285 20.4376C109.906 20.4376 110.994 21.1657 111.549 22.62V18.8726H114.953ZM111.041 26.2895C111.389 25.9408 111.561 25.4875 111.561 24.9337C111.561 24.3983 111.392 23.9614 111.055 23.6271C110.718 23.2928 110.255 23.1246 109.674 23.1246C109.1 23.1246 108.642 23.2948 108.298 23.6353C107.955 23.9758 107.784 24.4168 107.784 24.9624C107.784 25.508 107.955 25.9531 108.298 26.2977C108.642 26.6422 109.094 26.8146 109.66 26.8146C110.233 26.8125 110.694 26.6382 111.041 26.2895Z" fill="#5865F2"/>
<path d="M62.2109 21.7052C63.1479 21.7052 63.9078 20.9999 63.9078 20.1299C63.9078 19.2599 63.1479 18.5547 62.2109 18.5547C61.2735 18.5547 60.5139 19.2599 60.5139 20.1299C60.5139 20.9999 61.2735 21.7052 62.2109 21.7052Z" fill="#5865F2"/>
<path d="M60.5126 22.7903C61.5523 23.2538 62.8425 23.2743 63.9061 22.7903V29.2554H60.5126V22.7903Z" fill="#5865F2"/>
</g>
<defs>
<clipPath id="clip0_2_20">
<rect width="101" height="28" fill="white" transform="translate(14 10)"/>
</clipPath>
</defs>
</svg>
