<?xml version="1.0" encoding="UTF-8" standalone="no"?>
<svg
   aria-hidden="true"
   focusable="false"
   data-prefix="fab"
   data-icon="discord"
   class="svg-inline--fa fa-discord fa-w-14"
   role="img"
   viewBox="0 0 30 34.285713"
   version="1.1"
   id="svg4"
   width="30"
   height="34.285713"
   xmlns="http://www.w3.org/2000/svg"
   xmlns:svg="http://www.w3.org/2000/svg">
  <defs
     id="defs8" />
  <path
     fill="currentColor"
     d="m 19.902857,16.285714 c 0,1.045715 -0.771428,1.902857 -1.748571,1.902857 -0.96,0 -1.748572,-0.857142 -1.748572,-1.902857 0,-1.045714 0.771429,-1.902857 1.748572,-1.902857 0.977143,0 1.748571,0.857143 1.748571,1.902857 z m -8.005714,-1.902857 c -0.977143,0 -1.748572,0.857143 -1.748572,1.902857 0,1.045715 0.788572,1.902857 1.748572,1.902857 0.977143,0 1.748571,-0.857142 1.748571,-1.902857 C 13.662857,15.24 12.874286,14.382857 11.897143,14.382857 Z M 30,3.5314286 V 34.285714 C 25.681205,30.469152 27.062411,31.7325 22.045714,27.068571 L 22.954286,30.24 H 3.5142857 C 1.5771429,30.24 0,28.662857 0,26.708571 V 3.5314286 C 0,1.5771429 1.5771429,0 3.5142857,0 H 26.485714 C 28.422857,0 30,1.5771429 30,3.5314286 Z M 25.114286,19.782857 c 0,-5.52 -2.468572,-9.9942856 -2.468572,-9.9942856 -2.468571,-1.8514285 -4.817143,-1.8 -4.817143,-1.8 l -0.24,0.2742857 C 20.502857,9.1542857 21.857143,10.44 21.857143,10.44 17.784978,8.2081473 13.001518,8.2077455 9.0514286,9.9428571 8.4171429,10.234286 8.04,10.44 8.04,10.44 c 0,0 1.4228571,-1.3542857 4.508571,-2.2457143 L 12.377143,7.9885714 c 0,0 -2.348572,-0.051429 -4.817143,1.8 0,0 -2.4685714,4.4742856 -2.4685714,9.9942856 0,0 1.44,2.485714 5.2285714,2.605714 0,0 0.634286,-0.771428 1.148571,-1.422857 -2.1771424,-0.651428 -2.9999996,-2.022857 -2.9999996,-2.022857 0.2521875,0.176518 0.6680357,0.405335 0.7028572,0.428572 2.8935264,1.620401 7.0036604,2.151294 10.6971424,0.6 0.6,-0.222858 1.268572,-0.548572 1.971429,-1.011429 0,0 -0.857143,1.405714 -3.102857,2.04 0.514286,0.651429 1.131428,1.388571 1.131428,1.388571 3.788572,-0.12 5.245715,-2.605714 5.245715,-2.605714 z"
     id="path2"
     style="stroke-width:0.0669643;fill:#1f3598;fill-opacity:1" />
</svg>
