<?xml version="1.0" encoding="UTF-8" standalone="no"?>
<svg
   aria-hidden="true"
   focusable="false"
   data-prefix="fab"
   data-icon="discord"
   class="svg-inline--fa fa-discord fa-w-14"
   role="img"
   viewBox="0 0 30 30"
   version="1.1"
   id="svg11"
   width="30"
   height="30"
   xmlns="http://www.w3.org/2000/svg"
   xmlns:svg="http://www.w3.org/2000/svg">
  <defs
     id="defs15" />
  <path
     fill="currentColor"
     d="m 19.902857,14.25 c 0,0.915 -0.771428,1.665 -1.748571,1.665 -0.96,0 -1.748572,-0.75 -1.748572,-1.665 0,-0.915 0.771429,-1.665 1.748572,-1.665 0.977143,0 1.748571,0.75 1.748571,1.665 z m -8.005714,-1.665 c -0.977143,0 -1.748572,0.75 -1.748572,1.665 0,0.915 0.788572,1.665 1.748572,1.665 0.977143,0 1.748571,-0.75 1.748571,-1.665 0.01714,-0.915 -0.771428,-1.665 -1.748571,-1.665 z M 30,3.09 V 30 c -4.318795,-3.339492 -2.937589,-2.234063 -7.954286,-6.315 l 0.908572,2.775 H 3.5142857 C 1.5771429,26.46 0,25.08 0,23.37 V 3.09 C 0,1.38 1.5771429,0 3.5142857,0 H 26.485714 C 28.422857,0 30,1.38 30,3.09 Z m -4.885714,14.22 c 0,-4.83 -2.468572,-8.745 -2.468572,-8.745 C 20.177143,6.945 17.828571,6.99 17.828571,6.99 l -0.24,0.24 c 2.914286,0.78 4.268572,1.905 4.268572,1.905 C 17.784978,7.1821289 13.001518,7.1817773 9.0514286,8.7 8.4171429,8.955 8.04,9.135 8.04,9.135 c 0,0 1.4228571,-1.185 4.508571,-1.965 L 12.377143,6.99 c 0,0 -2.348572,-0.045 -4.817143,1.575 0,0 -2.4685714,3.915 -2.4685714,8.745 0,0 1.44,2.175 5.2285714,2.28 0,0 0.634286,-0.675 1.148571,-1.245 -2.1771424,-0.57 -2.9999996,-1.77 -2.9999996,-1.77 0.2521875,0.154453 0.6680357,0.354668 0.7028572,0.375 2.8935264,1.417852 7.0036604,1.882383 10.6971424,0.525 0.6,-0.195 1.268572,-0.48 1.971429,-0.885 0,0 -0.857143,1.23 -3.102857,1.785 0.514286,0.57 1.131428,1.215 1.131428,1.215 3.788572,-0.105 5.245715,-2.28 5.245715,-2.28 z"
     id="path9"
     style="fill:#5765f2;fill-opacity:1;stroke-width:0.0626395" />
  <path
     style="fill:#2364d2;stroke:#2364d2;stroke-width:0.0273366;fill-opacity:1"
     d="M 9.9231867,19.556532 C 8.3494548,19.44472 6.9448154,18.93882 5.902254,18.108337 5.6063903,17.872658 5.1460635,17.395283 5.1219255,17.29911 c -0.02527,-0.100685 0.0095,-0.980245 0.057078,-1.443881 0.1762964,-1.717948 0.6199671,-3.428201 1.3403179,-5.16663 C 6.715951,10.214071 7.2486349,9.1214588 7.4480865,8.7835668 7.5635561,8.5879491 7.5896669,8.5625201 7.8250576,8.4164387 8.5378084,7.974112 9.4442614,7.5755716 10.264894,7.3437154 c 0.636672,-0.1798811 1.518127,-0.3318769 1.924624,-0.3318769 0.165719,0 0.190953,0.00753 0.257353,0.076842 l 0.07362,0.076842 -0.253027,0.064172 c -0.410082,0.104003 -1.310057,0.4020565 -1.826812,0.6050028 -0.5537867,0.2174903 -1.385403,0.62216 -1.8042719,0.87797 -0.301631,0.184211 -0.6106289,0.401992 -0.5939831,0.4186379 0.00533,0.00533 0.2492365,-0.092928 0.5420222,-0.2183428 2.7353868,-1.1717065 5.9042658,-1.5588784 8.9383428,-1.0920818 1.389745,0.2138139 2.763883,0.6192669 4.020811,1.1863792 0.168396,0.075979 0.311404,0.1329143 0.317795,0.1265236 C 21.878855,9.1162961 21.541005,8.8812358 21.215071,8.6841201 20.81753,8.4436992 19.978087,8.0378454 19.436324,7.8241327 19.026207,7.6623508 18.189092,7.3808516 17.786448,7.269324 L 17.626417,7.224997 17.730489,7.1184177 c 0.100638,-0.1030634 0.110155,-0.1065793 0.28848,-0.1065793 0.42595,0 1.279311,0.1494498 1.950419,0.3415788 0.776753,0.2223735 1.754337,0.6529439 2.4125,1.0625697 0.235477,0.1465558 0.261423,0.1718901 0.376452,0.3675798 0.185114,0.3149196 0.697735,1.3592533 0.888146,1.8093663 0.471361,1.114258 0.859301,2.33401 1.091143,3.430744 0.217206,1.027501 0.356957,2.200276 0.357261,2.998095 1.36e-4,0.329235 0.0089,0.310655 -0.298512,0.633997 -0.93835,0.987058 -2.506663,1.690944 -4.145881,1.860743 -0.209223,0.02167 -0.469346,0.04467 -0.57805,0.0511 l -0.197643,0.01169 -0.461097,-0.495203 c -0.615572,-0.661105 -0.646633,-0.697741 -0.601972,-0.710015 0.02027,-0.0056 0.233676,-0.07395 0.474238,-0.151967 0.713513,-0.231385 1.199007,-0.472377 1.775358,-0.881262 0.243959,-0.173074 0.780614,-0.673602 0.780614,-0.728064 0,-0.0158 -0.224502,0.085 -0.498893,0.224006 -0.831129,0.421043 -1.789523,0.772095 -2.803496,1.026897 -3.145091,0.790333 -6.666454,0.419266 -9.49025,-1.000042 -0.3077306,-0.154672 -0.5644434,-0.276289 -0.5704736,-0.270259 -0.024329,0.02433 0.266849,0.331178 0.499563,0.526447 0.5846974,0.490619 1.2779426,0.862222 2.0807396,1.115348 0.179608,0.05663 0.335543,0.11055 0.346523,0.119818 0.02668,0.02252 -1.091686,1.232764 -1.134571,1.227771 -0.01844,-0.0021 -0.174996,-0.01395 -0.3479003,-0.02624 z m 2.5557103,-3.726436 c 0.289608,-0.09887 0.509577,-0.236208 0.714164,-0.445893 0.432161,-0.442928 0.580828,-1.135162 0.366702,-1.707465 -0.185051,-0.494594 -0.65345,-0.902533 -1.203619,-1.048257 -0.235284,-0.06232 -0.66723,-0.06388 -0.902108,-0.0033 -0.567783,0.146534 -1.049437,0.572892 -1.229077,1.087972 -0.0761,0.2182 -0.102863,0.6136 -0.05751,0.849713 0.0744,0.38737 0.354915,0.808349 0.690476,1.036224 0.358894,0.243721 0.653223,0.327715 1.101843,0.31444 0.239688,-0.0071 0.345023,-0.02403 0.519133,-0.08347 z m 6.1178,0.0403 c 0.52017,-0.133038 0.938876,-0.466167 1.152912,-0.917276 0.117592,-0.247841 0.159528,-0.436128 0.158266,-0.710585 -0.0029,-0.633887 -0.359949,-1.193302 -0.939344,-1.471801 -0.306646,-0.147396 -0.501358,-0.192216 -0.830695,-0.191217 -0.69093,0.0021 -1.299245,0.376943 -1.583307,0.975642 -0.113835,0.239923 -0.152568,0.41893 -0.152568,0.705112 0,0.442223 0.158324,0.811019 0.491501,1.14489 0.233711,0.234197 0.549063,0.41067 0.850836,0.476133 0.258772,0.05614 0.607745,0.05167 0.852399,-0.0109 z"
     id="path1209" />
  <path
     style="fill:#ffffff;fill-opacity:0;stroke:#2364d2;stroke-width:0.0273366"
     d="m 28.386869,28.736133 c -1.953041,-1.512204 -2.320476,-1.804004 -4.494609,-3.569412 -0.969804,-0.787486 -1.778954,-1.444292 -1.798112,-1.459569 -0.01916,-0.01528 -0.04022,-0.02239 -0.04681,-0.0158 -0.0066,0.0066 0.190255,0.62649 0.437429,1.377559 0.247174,0.75107 0.449686,1.368804 0.450025,1.372744 3.39e-4,0.0039 -4.486344,0.0037 -9.970408,-5.83e-4 l -9.971026,-0.0077 -0.2651377,-0.0612 C 2.1895803,26.247795 1.7770193,26.070649 1.3562701,25.783039 0.66329647,25.309345 0.19602714,24.607069 0.05104253,23.821364 -0.0049556,23.517897 -0.00468037,2.942905 0.0513259,2.6379821 0.28388077,1.3718511 1.3012404,0.40813681 2.742178,0.08901845 L 3.0206946,0.0273366 H 14.994126 c 11.387427,0 11.985166,0.0023895 12.213172,0.04882243 1.352024,0.27533673 2.368112,1.15517737 2.692447,2.33141327 l 0.07484,0.2714147 0.007,13.63413 c 0.0039,7.498772 -0.0023,13.633469 -0.01367,13.63266 -0.0114,-8.2e-4 -0.722889,-0.545149 -1.581097,-1.209644 z M 10.881341,19.009199 c 0.307465,-0.332647 0.568359,-0.620828 0.579764,-0.640402 0.01511,-0.02594 -0.02195,-0.04737 -0.136683,-0.07905 C 10.521785,18.068163 9.6611642,17.636006 9.075752,17.16059 8.8760942,16.998447 8.5153087,16.645069 8.5700248,16.665247 c 0.015035,0.0055 0.2549139,0.122759 0.5330638,0.260477 0.2781499,0.137718 0.6533448,0.308965 0.8337664,0.38055 2.756146,1.093533 5.929246,1.288763 8.788718,0.54074 0.454121,-0.118796 1.319037,-0.406363 1.776879,-0.590777 0.187939,-0.0757 0.535311,-0.234297 0.771937,-0.352438 0.236627,-0.118142 0.439087,-0.214803 0.449912,-0.214803 0.03218,0 -0.208132,0.236643 -0.442756,0.435994 -0.525026,0.446094 -1.193554,0.800929 -2.019005,1.07163 -0.287814,0.09439 -0.52815,0.174855 -0.534079,0.178818 -0.01066,0.0071 0.328987,0.37802 0.85772,0.93662 l 0.272872,0.288286 0.219187,-0.0088 c 0.847038,-0.0341 1.852455,-0.235861 2.567589,-0.515256 0.896139,-0.350112 1.785786,-0.94127 2.285666,-1.518792 l 0.190843,-0.220485 -2.74e-4,-0.289825 C 25.121523,16.463517 25.035618,15.540389 24.914481,14.816438 24.610189,12.997913 24.0267,11.215719 23.184965,9.5338522 22.882446,8.9293896 22.682904,8.5779229 22.612578,8.5256671 22.362393,8.339767 21.481481,7.8800383 20.984026,7.6757609 20.021795,7.2806259 18.742306,6.9856744 17.986342,6.9847261 c -0.175823,-2.187e-4 -0.180851,0.00183 -0.298998,0.1222173 -0.06609,0.067343 -0.114784,0.1267625 -0.108204,0.1320434 0.0066,0.00528 0.09807,0.032105 0.20332,0.05961 0.303611,0.079344 1.221925,0.3879829 1.640196,0.5512576 0.660792,0.2579443 2.220337,1.0649184 2.164996,1.1202594 -0.0066,0.00663 -0.207388,-0.069419 -0.446119,-0.1690088 C 19.681579,8.1920679 18.002629,7.7912758 16.33362,7.6533802 15.717748,7.6024961 14.412007,7.5950969 13.818652,7.6391288 11.987232,7.7750357 10.232273,8.185988 8.6545983,8.848376 8.4455165,8.9361593 8.2694141,9.0029464 8.2632598,8.9967919 8.2494039,8.982936 8.6564153,8.7300279 8.9982926,8.5400585 9.8559629,8.0634806 11.253813,7.5171545 12.28557,7.2552819 c 0.121509,-0.030841 0.232531,-0.067397 0.246715,-0.081237 0.01601,-0.015625 -0.0047,-0.057519 -0.05467,-0.1105233 l -0.08046,-0.08536 -0.314371,0.015336 C 10.730443,7.0594709 9.068004,7.6072382 7.7685796,8.4150105 7.5470739,8.5527068 7.5372272,8.5634151 7.3872335,8.8297226 7.1619826,9.2296456 6.7831665,9.9999801 6.5806588,10.469919 5.6790597,12.562164 5.1571903,14.779975 5.0947442,16.784674 l -0.01703,0.546732 0.1816077,0.211466 c 0.4093691,0.476672 1.0557516,0.95345 1.752517,1.292672 0.9506703,0.462837 1.8766498,0.683955 3.2407601,0.773873 0.05805,0.0038 0.163266,-0.09662 0.628742,-0.600218 z"
     id="path1759" />
  <path
     style="fill:#ffffff;fill-opacity:1;stroke:#2364d2;stroke-width:0.0273366"
     d="m 29.810565,29.798608 c -0.06014,-0.04827 -0.404582,-0.314095 -0.765425,-0.590728 -1.869223,-1.433001 -3.105557,-2.412715 -5.616503,-4.450712 -0.743597,-0.603536 -1.361746,-1.097339 -1.373665,-1.097339 -0.01192,0 -0.02167,0.02311 -0.02167,0.05135 0,0.04287 0.757773,2.405474 0.845676,2.636676 l 0.02818,0.07411 -9.997903,-0.008 -9.9979038,-0.008 -0.3054057,-0.08677 C 1.7279922,26.069843 1.0881523,25.65788 0.62268472,25.04236 0.43372406,24.792484 0.22355847,24.373855 0.1344664,24.069878 0.07458741,23.865575 0.07428762,23.852601 0.04919126,20.379437 0.01928683,16.240868 0.04387862,3.0681288 0.08219286,2.7019374 0.14388243,2.1123347 0.46323882,1.511571 0.97375389,1.0247593 1.4472544,0.57324366 2.0483857,0.27204878 2.8293383,0.09502479 L 3.1027044,0.03305901 15.007795,0.05001706 c 8.234875,0.01173006 11.972511,0.02600553 12.123783,0.0463054 0.261483,0.03508936 0.776176,0.20203687 1.055775,0.34245352 0.458033,0.23002895 0.90246,0.59638312 1.202332,0.99112272 0.178894,0.2354842 0.410976,0.7154028 0.500777,1.0355395 l 0.07045,0.2511735 -0.0032,13.3214493 c -0.0018,7.326798 -0.01099,13.439992 -0.0205,13.584879 l -0.01729,0.263429 z M 10.343677,19.588273 c 0.07128,-0.04439 0.451351,-0.442227 1.026147,-1.074133 0.07036,-0.07735 0.111512,-0.145615 0.102282,-0.169667 -0.0085,-0.02214 -0.10522,-0.06716 -0.214947,-0.100051 -0.69967,-0.209736 -1.5672632,-0.639103 -2.0482463,-1.013665 -0.1751473,-0.136394 -0.5317759,-0.459751 -0.5070576,-0.459751 0.0092,0 0.1862724,0.08116 0.3935,0.180365 0.6281623,0.300705 0.9794489,0.444115 1.5659199,0.639276 1.471473,0.489664 2.902653,0.718818 4.496871,0.72002 1.62746,0.0012 2.930667,-0.205803 4.426279,-0.703165 0.754765,-0.250996 1.008474,-0.35132 1.571715,-0.621501 0.246765,-0.118371 0.45252,-0.211363 0.457235,-0.206649 0.01936,0.01936 -0.501894,0.454872 -0.736005,0.614932 -0.46502,0.31793 -1.129543,0.621475 -1.954984,0.89301 -0.124797,0.04105 -0.223209,0.08549 -0.218693,0.09874 0.0045,0.01326 0.259843,0.294974 0.567392,0.626039 l 0.559181,0.601935 h 0.196514 c 0.410691,0 1.126078,-0.0984 1.705819,-0.23463 1.209655,-0.284252 2.300028,-0.877395 3.09587,-1.684099 l 0.321205,-0.325589 -1.09e-4,-0.29251 C 25.14917,16.042248 24.952215,14.637793 24.626034,13.343976 24.281118,11.975846 23.831832,10.778203 23.168413,9.4584644 22.735323,8.596917 22.698548,8.542545 22.444071,8.3875292 22.133451,8.1983135 21.512889,7.8799366 21.13079,7.7137563 20.241246,7.3268811 18.985648,7.0123472 18.147809,6.9665043 L 17.829744,6.949101 17.689921,7.0798886 c -0.0769,0.071933 -0.139822,0.1408849 -0.139822,0.153226 0,0.012341 0.08919,0.048581 0.19819,0.080533 1.065616,0.3123628 1.863953,0.6221278 2.754089,1.0686209 0.669662,0.3359034 0.883171,0.456472 0.75183,0.4245587 -0.03007,-0.00731 -0.269949,-0.0953 -0.533063,-0.1955414 C 19.453614,8.1283826 18.129403,7.8200241 16.593318,7.6500719 16.047166,7.5896457 14.096796,7.5804284 13.531618,7.6356024 11.892689,7.7955989 10.374454,8.1470738 8.9986863,8.6849862 8.7683609,8.7750414 8.5748066,8.8436164 8.5685656,8.8373757 8.5514294,8.8202392 9.0673197,8.5274002 9.4272583,8.3499488 10.093806,8.0213377 11.060753,7.6416383 11.754739,7.4359979 11.942678,7.380308 12.197934,7.3047497 12.321974,7.2680905 12.574221,7.19354 12.594167,7.1625613 12.47626,7.0284507 l -0.06951,-0.079066 -0.319171,0.018934 C 10.943145,7.0362102 9.6899464,7.3887813 8.5212902,7.9716477 8.0199411,8.221695 7.6316812,8.460705 7.5189606,8.5886747 7.4182668,8.7029906 6.8982246,9.6962248 6.6556308,10.237558 5.6931872,12.385191 5.1436267,14.672534 5.0694753,16.839347 l -0.017774,0.519396 0.2642282,0.279672 c 0.5077957,0.537475 1.1404256,0.976335 1.9009337,1.318691 0.8445799,0.380202 1.6893148,0.571742 3.0037998,0.6811 0.02078,0.0017 0.07613,-0.02074 0.123014,-0.04993 z"
     id="path1946" />
  <path
     style="fill:#ffffff;fill-opacity:1;stroke:#2364d2;stroke-width:0.0273366"
     d="m 17.823465,15.87022 c -0.581315,-0.109554 -1.124926,-0.570847 -1.31587,-1.116611 -0.06777,-0.193699 -0.09456,-0.593581 -0.0544,-0.811942 0.108799,-0.591592 0.64658,-1.138899 1.260927,-1.283263 0.22803,-0.05358 0.680449,-0.05458 0.882522,-0.002 0.598411,0.155866 1.090639,0.634803 1.235474,1.202113 0.05338,0.209105 0.0533,0.587092 -1.91e-4,0.792422 -0.184289,0.707555 -0.834946,1.205089 -1.612078,1.232702 -0.150351,0.0053 -0.328722,-7.2e-4 -0.39638,-0.01347 z"
     id="path2030" />
  <path
     style="fill:#ffffff;fill-opacity:1;stroke:#2364d2;stroke-width:0.0273366"
     d="m 11.566903,15.86725 c -0.75884,-0.135369 -1.398376,-0.853451 -1.39748,-1.569116 8.28e-4,-0.662093 0.334111,-1.203753 0.92164,-1.497871 0.324164,-0.162277 0.48426,-0.193974 0.894857,-0.177174 0.497535,0.02036 0.821906,0.158834 1.16373,0.496803 0.32812,0.324419 0.471096,0.651937 0.472112,1.081473 0.0011,0.479259 -0.154582,0.860926 -0.485152,1.189142 -0.319636,0.31736 -0.668504,0.467372 -1.138439,0.489527 -0.15644,0.0074 -0.350511,0.0016 -0.431268,-0.01278 z"
     id="path2069" />
</svg>
