<?xml version="1.0" encoding="UTF-8" standalone="no"?>
<svg
   aria-hidden="true"
   focusable="false"
   data-prefix="fab"
   data-icon="discord"
   class="svg-inline--fa fa-discord fa-w-14"
   role="img"
   viewBox="0 0 30 34.285713"
   version="1.1"
   id="svg4"
   width="30"
   height="34.285713"
   xmlns="http://www.w3.org/2000/svg"
   xmlns:svg="http://www.w3.org/2000/svg">
  <defs
     id="defs8" />
  <path
     fill="currentColor"
     d="m 19.902857,16.285714 c 0,1.045715 -0.771428,1.902857 -1.748571,1.902857 -0.96,0 -1.748572,-0.857142 -1.748572,-1.902857 0,-1.045714 0.771429,-1.902857 1.748572,-1.902857 0.977143,0 1.748571,0.857143 1.748571,1.902857 z m -8.005714,-1.902857 c -0.977143,0 -1.748572,0.857143 -1.748572,1.902857 0,1.045715 0.788572,1.902857 1.748572,1.902857 0.977143,0 1.748571,-0.857142 1.748571,-1.902857 C 13.662857,15.24 12.874286,14.382857 11.897143,14.382857 Z M 30,3.5314286 V 34.285714 C 25.681205,30.469152 27.062411,31.7325 22.045714,27.068571 L 22.954286,30.24 H 3.5142857 C 1.5771429,30.24 0,28.662857 0,26.708571 V 3.5314286 C 0,1.5771429 1.5771429,0 3.5142857,0 H 26.485714 C 28.422857,0 30,1.5771429 30,3.5314286 Z M 25.114286,19.782857 c 0,-5.52 -2.468572,-9.9942856 -2.468572,-9.9942856 -2.468571,-1.8514285 -4.817143,-1.8 -4.817143,-1.8 l -0.24,0.2742857 C 20.502857,9.1542857 21.857143,10.44 21.857143,10.44 17.784978,8.2081473 13.001518,8.2077455 9.0514286,9.9428571 8.4171429,10.234286 8.04,10.44 8.04,10.44 c 0,0 1.4228571,-1.3542857 4.508571,-2.2457143 L 12.377143,7.9885714 c 0,0 -2.348572,-0.051429 -4.817143,1.8 0,0 -2.4685714,4.4742856 -2.4685714,9.9942856 0,0 1.44,2.485714 5.2285714,2.605714 0,0 0.634286,-0.771428 1.148571,-1.422857 -2.1771424,-0.651428 -2.9999996,-2.022857 -2.9999996,-2.022857 0.2521875,0.176518 0.6680357,0.405335 0.7028572,0.428572 2.8935264,1.620401 7.0036604,2.151294 10.6971424,0.6 0.6,-0.222858 1.268572,-0.548572 1.971429,-1.011429 0,0 -0.857143,1.405714 -3.102857,2.04 0.514286,0.651429 1.131428,1.388571 1.131428,1.388571 3.788572,-0.12 5.245715,-2.605714 5.245715,-2.605714 z"
     id="path2"
     style="stroke-width:0.0669643;fill:#ffffff;fill-opacity:1" />
  <path
     style="fill:#2364d2;fill-opacity:1;stroke:#2364d2;stroke-width:0.0183276"
     d="M 10.052692,22.367294 C 8.3373553,22.258706 6.8108168,21.612961 5.7285371,20.538121 5.5193478,20.33037 5.3302582,20.109877 5.1869462,19.906583 l -0.088465,-0.125491 0.011825,-0.488484 C 5.1395412,18.084953 5.2755667,16.936612 5.547004,15.605957 5.9199604,13.777628 6.6214259,11.702766 7.3976176,10.132033 L 7.562188,9.7990039 7.7898104,9.6371881 C 8.4758835,9.1494616 9.3282082,8.7095809 10.1226,8.4332465 10.781799,8.2039399 11.575278,8.0372014 12.151203,8.0069639 l 0.219931,-0.011547 0.0782,0.096779 0.0782,0.096779 -0.362281,0.1128448 C 11.161173,8.6145772 10.146201,9.0521469 9.3379153,9.5207313 8.8713107,9.7912342 8.0094644,10.398163 8.0435497,10.432248 c 0.00499,0.005 0.1230019,-0.04862 0.2622549,-0.119138 1.7313904,-0.8767173 3.4411214,-1.3648751 5.4490634,-1.5558015 0.268024,-0.025485 0.523374,-0.032358 1.218786,-0.032804 0.92113,-5.907e-4 1.098588,0.00854 1.781336,0.091655 1.690145,0.2057521 3.365638,0.7225973 4.8223,1.4875525 0.144257,0.07575 0.266603,0.133418 0.271881,0.12814 0.01332,-0.01331 -0.230945,-0.212319 -0.479686,-0.390811 C 20.470896,9.3962307 19.224396,8.787132 17.942726,8.3665647 17.781443,8.3136413 17.64285,8.2643226 17.634741,8.2569677 c -0.0081,-0.00736 0.03313,-0.069164 0.09164,-0.1373533 l 0.106381,-0.1239806 0.213793,0.011109 c 1.414243,0.073483 3.099728,0.7122389 4.447351,1.6854323 l 0.152553,0.1101671 0.179972,0.3680168 c 1.351593,2.763804 2.208281,6.207655 2.266258,9.110283 l 0.01025,0.513172 -0.145197,0.19244 c -0.65859,0.872873 -1.6758,1.587977 -2.827158,1.987509 -0.601924,0.208873 -1.341869,0.355904 -1.94383,0.386248 -0.115315,0.0058 -0.231552,0.01394 -0.258304,0.01805 -0.04377,0.0067 -0.07695,-0.02684 -0.331309,-0.335347 -0.155467,-0.188558 -0.407866,-0.498174 -0.560886,-0.688036 l -0.278218,-0.345204 0.32121,-0.108446 c 0.945682,-0.319279 1.725919,-0.79358 2.338207,-1.421385 0.251011,-0.257372 0.459578,-0.519739 0.413164,-0.519739 -0.0037,0 -0.125348,0.0731 -0.270332,0.162441 -0.668747,0.412097 -1.285018,0.699947 -2.283362,1.066517 -1.229338,0.451386 -2.664964,0.695314 -4.092815,0.695411 C 12.841962,20.884438 10.561778,20.245259 8.6631434,19.05634 8.5591438,18.99122 8.4704337,18.941556 8.46601,18.945979 c -0.019846,0.01985 0.2577543,0.35567 0.4672746,0.565282 0.450462,0.45066 0.9170383,0.776448 1.5460754,1.079552 0.27696,0.133454 0.683263,0.296111 0.874592,0.350129 0.04536,0.01281 0.08529,0.0253 0.08873,0.02776 0.01439,0.0103 -1.129194,1.419984 -1.148535,1.415779 -0.0068,-0.0015 -0.115452,-0.0092 -0.241454,-0.01719 z m 2.177176,-4.206253 c 0.536694,-0.110588 0.994982,-0.488642 1.242953,-1.025343 0.227694,-0.492814 0.237116,-1.163033 0.02342,-1.665944 -0.177072,-0.41672 -0.553698,-0.799622 -0.945389,-0.961143 -0.246166,-0.10151 -0.35582,-0.121303 -0.665399,-0.120103 -0.254453,9.86e-4 -0.30089,0.0062 -0.445298,0.05045 -0.605885,0.185459 -1.059971,0.671825 -1.234991,1.322783 -0.0451,0.167755 -0.04928,0.211991 -0.04928,0.522337 0,0.308119 0.0044,0.355294 0.04794,0.516945 0.190053,0.705151 0.733341,1.24044 1.38964,1.369179 0.138556,0.02718 0.484181,0.0222 0.636398,-0.0092 z m 6.400144,-0.03441 c 0.924143,-0.297852 1.455789,-1.295721 1.228728,-2.306252 -0.150614,-0.670305 -0.645355,-1.212765 -1.265384,-1.387432 -0.174163,-0.04906 -0.508742,-0.06739 -0.696449,-0.03814 -0.710855,0.110761 -1.29561,0.700297 -1.457372,1.469289 -0.1106,0.525775 0.0038,1.112261 0.304381,1.560059 0.108877,0.162216 0.367368,0.412738 0.529853,0.513517 0.306984,0.190403 0.550875,0.254438 0.934708,0.245415 0.228863,-0.0054 0.287373,-0.01322 0.421535,-0.05646 z"
     id="path930" />
</svg>
