<?xml version="1.0" encoding="UTF-8" standalone="no"?>
<svg
   aria-hidden="true"
   focusable="false"
   data-prefix="fab"
   data-icon="discord"
   class="svg-inline--fa fa-discord fa-w-14"
   role="img"
   viewBox="0 0 30 30"
   version="1.1"
   id="svg11"
   width="30"
   height="30"
   xmlns="http://www.w3.org/2000/svg"
   xmlns:svg="http://www.w3.org/2000/svg">
  <defs
     id="defs15" />
  <path
     fill="currentColor"
     d="m 19.902857,14.25 c 0,0.915 -0.771428,1.665 -1.748571,1.665 -0.96,0 -1.748572,-0.75 -1.748572,-1.665 0,-0.915 0.771429,-1.665 1.748572,-1.665 0.977143,0 1.748571,0.75 1.748571,1.665 z m -8.005714,-1.665 c -0.977143,0 -1.748572,0.75 -1.748572,1.665 0,0.915 0.788572,1.665 1.748572,1.665 0.977143,0 1.748571,-0.75 1.748571,-1.665 0.01714,-0.915 -0.771428,-1.665 -1.748571,-1.665 z M 30,3.09 V 30 c -4.318795,-3.339492 -2.937589,-2.234063 -7.954286,-6.315 l 0.908572,2.775 H 3.5142857 C 1.5771429,26.46 0,25.08 0,23.37 V 3.09 C 0,1.38 1.5771429,0 3.5142857,0 H 26.485714 C 28.422857,0 30,1.38 30,3.09 Z m -4.885714,14.22 c 0,-4.83 -2.468572,-8.745 -2.468572,-8.745 C 20.177143,6.945 17.828571,6.99 17.828571,6.99 l -0.24,0.24 c 2.914286,0.78 4.268572,1.905 4.268572,1.905 C 17.784978,7.1821289 13.001518,7.1817773 9.0514286,8.7 8.4171429,8.955 8.04,9.135 8.04,9.135 c 0,0 1.4228571,-1.185 4.508571,-1.965 L 12.377143,6.99 c 0,0 -2.348572,-0.045 -4.817143,1.575 0,0 -2.4685714,3.915 -2.4685714,8.745 0,0 1.44,2.175 5.2285714,2.28 0,0 0.634286,-0.675 1.148571,-1.245 -2.1771424,-0.57 -2.9999996,-1.77 -2.9999996,-1.77 0.2521875,0.154453 0.6680357,0.354668 0.7028572,0.375 2.8935264,1.417852 7.0036604,1.882383 10.6971424,0.525 0.6,-0.195 1.268572,-0.48 1.971429,-0.885 0,0 -0.857143,1.23 -3.102857,1.785 0.514286,0.57 1.131428,1.215 1.131428,1.215 3.788572,-0.105 5.245715,-2.28 5.245715,-2.28 z"
     id="path9"
     style="fill:#1F3598;fill-opacity:1;stroke-width:0.0626395" />
</svg>
