<svg width="104" height="15" viewBox="0 0 104 15" fill="none" xmlns="http://www.w3.org/2000/svg">
<rect x="19.1694" y="2.5766" width="10.7828" height="2.39619" rx="1.19809" transform="rotate(-180 19.1694 2.5766)" fill="#2364D2"/>
<rect x="19.1694" y="8.56714" width="19.1695" height="2.39619" rx="1.1981" transform="rotate(-180 19.1694 8.56714)" fill="#2364D2"/>
<rect x="19.1694" y="14.5576" width="15.5752" height="2.39619" rx="1.19809" transform="rotate(-180 19.1694 14.5576)" fill="#2364D2"/>
<g clip-path="url(#clip0)">
<path d="M28.3441 2.84569V6.94144H33.184V8.93612H28.3441V14.7606H26.0177V0.851013H33.5851V2.84569H28.3441Z" fill="#2D2E7C"/>
<path d="M40.2969 14.734V13.3777H40.2702C39.5749 14.4415 38.5856 14.9734 37.3288 14.9734C36.3394 14.9734 35.5639 14.7074 35.0024 14.1755C34.4409 13.6436 34.1467 12.9255 34.1467 12.0213C34.1467 11.0904 34.4141 10.3457 34.9757 9.78723C35.5372 9.22872 36.3394 8.88297 37.409 8.74999L40.3237 8.35106C40.3237 6.99468 39.6819 6.32978 38.4251 6.32978C37.8101 6.32978 37.2218 6.43616 36.6603 6.62233C36.0987 6.80851 35.5639 7.10106 35.1361 7.42021V5.45212C35.4837 5.23936 36.0185 5.02659 36.7405 4.84042C37.4625 4.65425 38.1042 4.57446 38.6658 4.57446C39.9493 4.57446 40.9119 4.89361 41.5537 5.55851C42.1955 6.2234 42.5164 7.18085 42.5164 8.43085V14.7074H40.2969V14.734ZM36.3394 11.8085C36.3394 12.234 36.4998 12.5798 36.794 12.8191C37.1149 13.0851 37.4892 13.1915 37.9705 13.1915C38.639 13.1915 39.2006 12.9521 39.6284 12.5C40.0563 12.0479 40.2702 11.4628 40.2702 10.7713V9.86702L38.1042 10.1596C37.4357 10.266 36.9544 10.4255 36.687 10.6649C36.4731 10.9308 36.3394 11.3032 36.3394 11.8085Z" fill="#2D2E7C"/>
<path d="M47.4632 1.32979C47.4632 1.70213 47.3295 1.99468 47.0621 2.26064C46.7947 2.5266 46.4738 2.60638 46.0727 2.60638C45.6716 2.60638 45.3775 2.4734 45.1101 2.23404C44.8427 1.99468 44.709 1.67553 44.709 1.32979C44.709 0.957447 44.8427 0.638298 45.1101 0.398936C45.3775 0.159574 45.6984 0 46.0727 0C46.4738 0 46.7947 0.132979 47.0621 0.398936C47.3295 0.664894 47.4632 0.957447 47.4632 1.32979ZM44.9229 14.734V4.81383H47.1691V14.734H44.9229Z" fill="#2D2E7C"/>
<path d="M55.8328 6.99471C55.7259 6.91492 55.512 6.83513 55.2713 6.75535C55.0039 6.67556 54.7632 6.64896 54.5493 6.64896C53.8808 6.64896 53.3728 6.91492 52.9717 7.47343C52.5706 8.03194 52.3566 8.75003 52.3566 9.65428V14.7341H50.0837V4.81386H52.3299V6.72875H52.3566C52.5706 6.06386 52.9182 5.55854 53.3728 5.1862C53.8273 4.81386 54.3354 4.62769 54.9237 4.62769C55.3248 4.62769 55.6189 4.68088 55.8328 4.76066V6.99471Z" fill="#2D2E7C"/>
<path d="M57.865 14.734V0.851013H60.1914V14.7606H57.865V14.734Z" fill="#2D2E7C"/>
<path d="M64.3896 10.4521C64.4431 11.3563 64.7105 12.0478 65.2185 12.5265C65.7266 13.0053 66.4486 13.2446 67.3845 13.2446C67.946 13.2446 68.4808 13.1648 69.0156 12.9787C69.5237 12.7925 69.9783 12.5797 70.3794 12.2872V14.1755C70.005 14.4148 69.4969 14.6276 68.8552 14.7872C68.2134 14.9468 67.5449 15.0265 66.8497 15.0265C65.3255 15.0265 64.1757 14.5744 63.3467 13.6702C62.5178 12.7659 62.09 11.5159 62.09 9.92016C62.09 8.85633 62.3039 7.92548 62.705 7.12761C63.1061 6.32974 63.6944 5.71803 64.4163 5.26591C65.1383 4.81378 65.9405 4.60101 66.8229 4.60101C68.1867 4.60101 69.2563 5.02655 70.0317 5.85101C70.8072 6.67548 71.1816 7.84569 71.1816 9.33505V10.4521H64.3896ZM68.9354 8.74995C68.9354 7.95208 68.7482 7.36697 68.3739 6.94144C67.9995 6.51591 67.4914 6.32974 66.8229 6.32974C66.2079 6.32974 65.6731 6.5425 65.2453 6.99463C64.7907 7.44676 64.5233 8.03186 64.3896 8.74995H68.9354Z" fill="#2D2E7C"/>
<path d="M78.6152 14.734V13.3776H78.5884C77.8932 14.4414 76.9038 14.9733 75.647 14.9733C74.6576 14.9733 73.8822 14.7074 73.3206 14.1755C72.7591 13.6435 72.465 12.9255 72.465 12.0212C72.465 11.0904 72.7324 10.3457 73.2939 9.78717C73.8554 9.22866 74.6576 8.88291 75.7272 8.74993L78.6419 8.351C78.6419 6.99461 78.0001 6.32972 76.7434 6.32972C76.1283 6.32972 75.5401 6.4361 74.9785 6.62227C74.417 6.80844 73.8822 7.101 73.4543 7.42015V5.45206C73.802 5.2393 74.3368 5.02653 75.0587 4.84036C75.7807 4.65419 76.4225 4.5744 76.984 4.5744C78.2676 4.5744 79.2302 4.89355 79.8719 5.55844C80.5137 6.22334 80.8346 7.18078 80.8346 8.43078V14.7074H78.6152V14.734ZM74.6844 11.8084C74.6844 12.234 74.8448 12.5797 75.139 12.8191C75.4598 13.085 75.8342 13.1914 76.3155 13.1914C76.984 13.1914 77.5456 12.9521 77.9734 12.4999C78.4013 12.0478 78.6152 11.4627 78.6152 10.7712V9.86695L76.4492 10.1595C75.7807 10.2659 75.2994 10.4255 75.032 10.6648C74.8181 10.9308 74.6844 11.3031 74.6844 11.8084Z" fill="#2D2E7C"/>
<path d="M88.8566 6.99471C88.7497 6.91492 88.5357 6.83513 88.2951 6.75535C88.0277 6.67556 87.787 6.64896 87.5731 6.64896C86.9046 6.64896 86.3966 6.91492 85.9955 7.47343C85.5944 8.03194 85.3804 8.75003 85.3804 9.65428V14.7341H83.1343V4.81386H85.3804V6.72875H85.4072C85.6211 6.06386 85.9687 5.55854 86.4233 5.1862C86.8779 4.81386 87.3859 4.62769 87.9742 4.62769C88.3753 4.62769 88.6694 4.68088 88.8834 4.76066V6.99471H88.8566Z" fill="#2D2E7C"/>
<path d="M97.1461 14.734V9.17546C97.1461 8.24461 96.9856 7.55312 96.6647 7.101C96.3439 6.64887 95.8358 6.40951 95.1406 6.40951C94.4721 6.40951 93.8838 6.67547 93.4559 7.18078C93.0014 7.6861 92.7874 8.3244 92.7874 9.09568V14.734H90.5413V4.81376H92.7874V6.40951H92.8142C93.5629 5.1861 94.6325 4.5744 96.0497 4.5744C97.1193 4.5744 97.9215 4.92015 98.5098 5.58504C99.0981 6.24993 99.3922 7.28717 99.3922 8.64355V14.734H97.1461Z" fill="#2D2E7C"/>
</g>
<defs>
<clipPath id="clip0">
<rect width="77.9204" height="15" fill="white" transform="translate(26.0177)"/>
</clipPath>
</defs>
</svg>
