<svg width="32" height="32" viewBox="0 0 32 32" fill="none" xmlns="http://www.w3.org/2000/svg">
<path d="M8.62891 1H22.6289" stroke="#1F3598" stroke-width="2" stroke-linecap="round" stroke-linejoin="round"/>
<path fill-rule="evenodd" clip-rule="evenodd" d="M20.6289 11V1H10.6289V11L1.64626 24.82C0.847388 26.049 0.784729 27.6165 1.48296 28.9054C2.18118 30.1942 3.52844 30.9979 4.99426 31H26.2583C27.725 30.9999 29.0741 30.1969 29.7736 28.9077C30.4732 27.6185 30.411 26.0498 29.6116 24.82L20.6289 11Z" stroke="#1F3598" stroke-width="2" stroke-linecap="round" stroke-linejoin="round"/>
<path d="M6.729 17H24.529" stroke="#1F3598" stroke-width="2" stroke-linecap="round" stroke-linejoin="round"/>
<path d="M18.6289 23H22.6289" stroke="#1F3598" stroke-width="2" stroke-linecap="round" stroke-linejoin="round"/>
<path d="M20.6289 21V25" stroke="#1F3598" stroke-width="2" stroke-linecap="round" stroke-linejoin="round"/>
<path d="M8.62891 25.5C8.90453 25.5007 9.12757 25.7244 9.12757 26" stroke="#1F3598" stroke-width="2" stroke-linecap="round" stroke-linejoin="round"/>
<path d="M8.12891 26C8.12891 25.7239 8.35276 25.5 8.62891 25.5" stroke="#1F3598" stroke-width="2" stroke-linecap="round" stroke-linejoin="round"/>
<path d="M8.62891 26.5C8.35276 26.5 8.12891 26.2761 8.12891 26" stroke="#1F3598" stroke-width="2" stroke-linecap="round" stroke-linejoin="round"/>
<path d="M9.12769 26C9.12769 26.2761 8.90383 26.5 8.62769 26.5" stroke="#1F3598" stroke-width="2" stroke-linecap="round" stroke-linejoin="round"/>
<path d="M12.6289 21.5C12.905 21.5 13.1289 21.7239 13.1289 22" stroke="#1F3598" stroke-width="2" stroke-linecap="round" stroke-linejoin="round"/>
<path d="M12.1289 22C12.1289 21.7239 12.3528 21.5 12.6289 21.5" stroke="#1F3598" stroke-width="2" stroke-linecap="round" stroke-linejoin="round"/>
<path d="M12.6289 22.5C12.3528 22.5 12.1289 22.2761 12.1289 22" stroke="#1F3598" stroke-width="2" stroke-linecap="round" stroke-linejoin="round"/>
<path d="M13.1276 22C13.1276 22.2761 12.9037 22.5 12.6276 22.5" stroke="#1F3598" stroke-width="2" stroke-linecap="round" stroke-linejoin="round"/>
<path d="M20.6289 5H16.6289" stroke="#1F3598" stroke-width="2" stroke-linecap="round" stroke-linejoin="round"/>
<path d="M20.6289 9H16.6289" stroke="#1F3598" stroke-width="2" stroke-linecap="round" stroke-linejoin="round"/>
</svg>
