<svg width="116" height="44" viewBox="0 0 116 44" fill="none" xmlns="http://www.w3.org/2000/svg">
<rect width="116" height="44" rx="22" fill="#3772CE"/>
<path fill-rule="evenodd" clip-rule="evenodd" d="M44 22.6361C43.9568 23.0067 43.9191 23.378 43.8695 23.7478C43.6502 25.3791 43.0923 26.8911 42.2186 28.2821C41.2421 29.8366 39.9975 31.135 38.4407 32.1231C37.6267 32.6397 36.7585 33.0453 35.846 33.3517C35.3405 33.5213 34.9908 33.2595 34.9883 32.7275C34.9833 31.6817 34.99 30.6358 34.9853 29.5899C34.9824 28.9527 34.9186 28.3251 34.5701 27.767C34.4684 27.6042 34.3397 27.4581 34.2191 27.2988C34.6875 27.2113 35.157 27.149 35.6131 27.0333C36.8376 26.7228 37.9323 26.182 38.6783 25.1139C39.2263 24.3293 39.4771 23.4281 39.5875 22.4887C39.6734 21.7586 39.6978 21.0261 39.5438 20.2993C39.3889 19.5679 39.0724 18.9135 38.5827 18.3487C38.462 18.2096 38.4381 18.0973 38.4978 17.9174C38.8197 16.9455 38.685 15.9936 38.3234 15.061C38.3026 15.0076 38.2126 14.9578 38.1486 14.9483C37.7229 14.8847 37.3216 15.0048 36.9483 15.1809C36.3432 15.4666 35.7581 15.7941 35.159 16.0928C35.0578 16.1432 34.9183 16.1776 34.8136 16.1511C32.9355 15.6772 31.0608 15.6777 29.1824 16.1507C29.0726 16.1783 28.9171 16.1417 28.8187 16.079C28.0569 15.5936 27.2516 15.2097 26.376 14.9789C26.3609 14.9749 26.3462 14.9693 26.3309 14.9662C25.7804 14.8537 25.6798 14.9166 25.5229 15.4487C25.2695 16.3078 25.2237 17.1641 25.5253 18.0237C25.549 18.0911 25.521 18.2093 25.4723 18.2645C24.4832 19.3873 24.2488 20.7191 24.3725 22.1549C24.4475 23.0254 24.6493 23.861 25.0389 24.6467C25.5774 25.7323 26.4894 26.3962 27.5941 26.786C28.2876 27.0308 29.0228 27.1579 29.7506 27.3407C29.7562 27.3055 29.7604 27.3333 29.7485 27.3457C29.3738 27.7358 29.1644 28.204 29.0763 28.7336C29.0651 28.8006 29.0189 28.8963 28.9655 28.9164C28.1319 29.2298 27.2936 29.3947 26.4695 28.892C26.0949 28.6636 25.8215 28.3336 25.6008 27.9584C25.2548 27.3699 24.7669 26.9433 24.1114 26.7489C23.8755 26.679 23.6066 26.6968 23.3549 26.7114C23.1833 26.7215 23.1269 26.8499 23.242 26.9938C23.3482 27.1262 23.4562 27.2761 23.5982 27.3577C24.229 27.7206 24.5824 28.3003 24.871 28.9313C25.0431 29.3073 25.1905 29.6912 25.5094 29.9803C26.0173 30.4409 26.6329 30.6146 27.2929 30.6435C27.8515 30.668 28.412 30.6486 28.9978 30.6486C28.9969 30.6407 29.0086 30.6994 29.0093 30.7581C29.0177 31.3902 29.0262 32.0223 29.0308 32.6545C29.0352 33.2731 28.6635 33.5288 28.0762 33.3251C25.0296 32.2684 22.7942 30.2674 21.3026 27.4394C20.1792 25.3098 19.8242 23.0224 20.0779 20.6349C20.3435 18.1351 21.3336 15.947 22.9855 14.0698C24.7122 12.1078 26.8617 10.8036 29.4306 10.2819C33.1627 9.52388 36.5713 10.285 39.5555 12.6812C41.818 14.4978 43.2182 16.8614 43.7833 19.7089C43.8665 20.1284 43.8981 20.5582 43.9552 20.9829C43.9663 21.0661 43.9849 21.1483 44 21.231V22.6361Z" fill="white"/>
<path d="M57.025 25.075C58.75 25.075 59.725 24.1 59.725 24.1L60.1 25H61.15V20.125H56.95V21.475H59.8C59.575 22.75 58.525 23.8 57.025 23.8C55.45 23.8 53.95 22.3 53.95 20.275C53.95 18.25 55.45 16.75 57.025 16.75C58.375 16.75 59.275 17.65 59.575 18.625H61.075C60.625 16.975 59.125 15.475 57.025 15.475C54.625 15.475 52.525 17.575 52.525 20.275C52.525 22.975 54.625 25.075 57.025 25.075ZM64.2988 18.25H62.9488V25H64.2988V18.25ZM63.6238 17.2C64.0738 17.2 64.4488 16.825 64.4488 16.375C64.4488 15.925 64.0738 15.55 63.6238 15.55C63.1738 15.55 62.7988 15.925 62.7988 16.375C62.7988 16.825 63.1738 17.2 63.6238 17.2ZM68.0482 19.525H69.5482V18.25H68.0482V16.45H66.9232V17.35C66.9232 17.875 66.5482 18.25 66.0232 18.25H65.4982V19.525H66.6982V22.75C66.6982 24.175 67.5982 25.075 68.7982 25.075C69.2482 25.075 69.5482 24.925 69.5482 24.925V23.725C69.5482 23.725 69.3232 23.8 69.0982 23.8C68.4982 23.8 68.0482 23.35 68.0482 22.75V19.525ZM77.1227 15.55V19.525H72.7727V15.55H71.3477V25H72.7727V20.875H77.1227V25H78.5477V15.55H77.1227ZM83.2709 25.075C84.6209 25.075 85.2209 24.325 85.2209 24.325L85.5209 25H86.4959V18.25H85.1459V22.15C85.1459 23.05 84.3959 23.8 83.4959 23.8C82.6709 23.8 81.9209 23.05 81.9209 22.15V18.25H80.5709V22.15C80.5709 23.875 81.7709 25.075 83.2709 25.075ZM91.5906 25.075C93.3906 25.075 94.8156 23.65 94.8156 21.625C94.8156 19.6 93.3906 18.175 91.5906 18.175C90.3156 18.175 89.7156 18.925 89.7156 18.925V15.55H88.3656V25H89.3406L89.6406 24.325C89.6406 24.325 90.2406 25.075 91.5906 25.075ZM91.5156 19.45C92.5656 19.45 93.4656 20.35 93.4656 21.625C93.4656 22.9 92.5656 23.8 91.5156 23.8C90.4656 23.8 89.5656 22.9 89.5656 21.625C89.5656 20.35 90.4656 19.45 91.5156 19.45Z" fill="white"/>
</svg>
