<svg width="30" height="30" viewBox="0 0 30 30" fill="none" xmlns="http://www.w3.org/2000/svg">
<path fill-rule="evenodd" clip-rule="evenodd" d="M30 15.6755C29.946 16.1353 29.8989 16.5959 29.8368 17.0546C29.5627 19.0783 28.8654 20.954 27.7732 22.6797C26.5527 24.608 24.9969 26.2188 23.0509 27.4445C22.0334 28.0854 20.9482 28.5885 19.8075 28.9686C19.1756 29.179 18.7385 28.8543 18.7353 28.1942C18.7291 26.8969 18.7375 25.5995 18.7316 24.302C18.728 23.5115 18.6483 22.7329 18.2126 22.0406C18.0855 21.8386 17.9246 21.6574 17.7739 21.4597C18.3593 21.3512 18.9463 21.274 19.5163 21.1305C21.047 20.7452 22.4154 20.0744 23.3479 18.7494C24.0329 17.776 24.3463 16.658 24.4844 15.4926C24.5917 14.5869 24.6222 13.6783 24.4297 12.7766C24.2361 11.8694 23.8404 11.0575 23.2283 10.3569C23.0776 10.1844 23.0476 10.045 23.1222 9.82179C23.5247 8.6161 23.3562 7.43526 22.9042 6.27834C22.8783 6.21211 22.7657 6.15038 22.6857 6.13851C22.1536 6.05965 21.652 6.20864 21.1853 6.42715C20.429 6.7815 19.6976 7.18784 18.9487 7.5583C18.8223 7.62088 18.6478 7.66353 18.5171 7.63071C16.1694 7.04275 13.826 7.04335 11.478 7.63012C11.3408 7.66438 11.1464 7.61901 11.0233 7.54126C10.0711 6.93905 9.06446 6.46276 7.97001 6.1765C7.9511 6.17158 7.93272 6.16454 7.91364 6.16073C7.22551 6.02116 7.09971 6.09917 6.9036 6.75929C6.58682 7.82506 6.5296 8.88727 6.90668 9.95373C6.93627 10.0373 6.90129 10.1839 6.8404 10.2525C5.60397 11.6453 5.31096 13.2975 5.46559 15.0786C5.55933 16.1585 5.81162 17.195 6.29869 18.1697C6.97176 19.5165 8.1118 20.34 9.4926 20.8236C10.3596 21.1273 11.2785 21.285 12.1882 21.5117C12.1953 21.4681 12.2006 21.5027 12.1857 21.5179C11.7173 22.0019 11.4556 22.5828 11.3453 23.2397C11.3314 23.3228 11.2736 23.4415 11.2069 23.4665C10.1648 23.8553 9.11706 24.0598 8.08683 23.4362C7.61867 23.1529 7.27683 22.7434 7.00101 22.278C6.56852 21.548 5.95864 21.0187 5.13923 20.7777C4.84434 20.6909 4.50823 20.713 4.19359 20.7311C3.97909 20.7436 3.90862 20.9029 4.05256 21.0814C4.18529 21.2457 4.32025 21.4316 4.4978 21.5329C5.28625 21.9831 5.72798 22.7021 6.08881 23.485C6.30382 23.9514 6.48812 24.4277 6.88675 24.7863C7.52169 25.3576 8.29115 25.5732 9.11612 25.609C9.81434 25.6394 10.515 25.6153 11.2472 25.6153C11.2461 25.6056 11.2607 25.6783 11.2617 25.7512C11.2721 26.5353 11.2828 27.3195 11.2884 28.1037C11.294 28.8711 10.8293 29.1883 10.0952 28.9356C6.28706 27.6248 3.4928 25.1424 1.62819 21.6343C0.224053 18.9923 -0.219733 16.1548 0.0973914 13.1929C0.429397 10.0919 1.66702 7.37743 3.73193 5.04874C5.89022 2.61482 8.57714 0.996951 11.7882 0.349719C16.4534 -0.590645 20.7141 0.353535 24.4444 3.32615C27.2725 5.57972 29.0227 8.51181 29.7291 12.0442C29.8331 12.5647 29.8727 13.0978 29.944 13.6247C29.9579 13.7279 29.9811 13.8299 30 13.9325V15.6755Z" fill="#FFFFFF"/>
</svg>
