<svg width="38" height="38" viewBox="0 0 38 38" fill="none" xmlns="http://www.w3.org/2000/svg">
<g filter="url(#filter0_d)">
<path fill-rule="evenodd" clip-rule="evenodd" d="M34 15.6755C33.946 16.1353 33.8989 16.5959 33.8368 17.0546C33.5627 19.0783 32.8654 20.954 31.7732 22.6797C30.5527 24.608 28.9969 26.2188 27.0509 27.4445C26.0334 28.0854 24.9482 28.5885 23.8075 28.9686C23.1756 29.179 22.7385 28.8543 22.7353 28.1942C22.7291 26.8969 22.7375 25.5995 22.7316 24.302C22.728 23.5115 22.6483 22.7329 22.2126 22.0406C22.0855 21.8386 21.9246 21.6574 21.7739 21.4597C22.3593 21.3512 22.9463 21.274 23.5163 21.1305C25.047 20.7452 26.4154 20.0744 27.3479 18.7494C28.0329 17.776 28.3463 16.658 28.4844 15.4926C28.5917 14.5869 28.6222 13.6783 28.4297 12.7766C28.2361 11.8694 27.8404 11.0575 27.2283 10.3569C27.0776 10.1844 27.0476 10.045 27.1222 9.82179C27.5247 8.6161 27.3562 7.43526 26.9042 6.27834C26.8783 6.21211 26.7657 6.15038 26.6857 6.13851C26.1536 6.05965 25.652 6.20864 25.1853 6.42715C24.429 6.7815 23.6976 7.18784 22.9487 7.5583C22.8223 7.62088 22.6478 7.66353 22.5171 7.63071C20.1694 7.04275 17.826 7.04335 15.478 7.63012C15.3408 7.66438 15.1464 7.61901 15.0233 7.54126C14.0711 6.93905 13.0645 6.46276 11.97 6.1765C11.9511 6.17158 11.9327 6.16454 11.9136 6.16073C11.2255 6.02116 11.0997 6.09917 10.9036 6.75929C10.5868 7.82506 10.5296 8.88727 10.9067 9.95373C10.9363 10.0373 10.9013 10.1839 10.8404 10.2525C9.60397 11.6453 9.31096 13.2975 9.46559 15.0786C9.55933 16.1585 9.81162 17.195 10.2987 18.1697C10.9718 19.5165 12.1118 20.34 13.4926 20.8236C14.3596 21.1273 15.2785 21.285 16.1882 21.5117C16.1953 21.4681 16.2006 21.5027 16.1857 21.5179C15.7173 22.0019 15.4556 22.5828 15.3453 23.2397C15.3314 23.3228 15.2736 23.4415 15.2069 23.4665C14.1648 23.8553 13.1171 24.0598 12.0868 23.4362C11.6187 23.1529 11.2768 22.7434 11.001 22.278C10.5685 21.548 9.95864 21.0187 9.13923 20.7777C8.84434 20.6909 8.50823 20.713 8.19359 20.7311C7.97909 20.7436 7.90862 20.9029 8.05256 21.0814C8.18529 21.2457 8.32025 21.4316 8.4978 21.5329C9.28625 21.9831 9.72798 22.7021 10.0888 23.485C10.3038 23.9514 10.4881 24.4277 10.8868 24.7863C11.5217 25.3576 12.2912 25.5732 13.1161 25.609C13.8143 25.6394 14.515 25.6153 15.2472 25.6153C15.2461 25.6056 15.2607 25.6783 15.2617 25.7512C15.2721 26.5353 15.2828 27.3195 15.2884 28.1037C15.294 28.8711 14.8293 29.1883 14.0952 28.9356C10.2871 27.6248 7.4928 25.1424 5.62819 21.6343C4.22405 18.9923 3.78027 16.1548 4.09739 13.1929C4.4294 10.0919 5.66702 7.37743 7.73193 5.04874C9.89022 2.61482 12.5771 0.996951 15.7882 0.349719C20.4534 -0.590645 24.7141 0.353535 28.4444 3.32615C31.2725 5.57972 33.0227 8.51181 33.7291 12.0442C33.8331 12.5647 33.8727 13.0978 33.944 13.6247C33.9579 13.7279 33.9811 13.8299 34 13.9325V15.6755Z" fill="white"/>
</g>
<defs>
<filter id="filter0_d" x="0" y="0" width="38" height="37.0323" filterUnits="userSpaceOnUse" color-interpolation-filters="sRGB">
<feFlood flood-opacity="0" result="BackgroundImageFix"/>
<feColorMatrix in="SourceAlpha" type="matrix" values="0 0 0 0 0 0 0 0 0 0 0 0 0 0 0 0 0 0 127 0"/>
<feOffset dy="4"/>
<feGaussianBlur stdDeviation="2"/>
<feColorMatrix type="matrix" values="0 0 0 0 0 0 0 0 0 0 0 0 0 0 0 0 0 0 0.25 0"/>
<feBlend mode="normal" in2="BackgroundImageFix" result="effect1_dropShadow"/>
<feBlend mode="normal" in="SourceGraphic" in2="effect1_dropShadow" result="shape"/>
</filter>
</defs>
</svg>
