<svg xmlns="http://www.w3.org/2000/svg" xmlns:xlink="http://www.w3.org/1999/xlink" width="200" zoomAndPan="magnify" viewBox="0 0 150 149.999998" height="200" preserveAspectRatio="xMidYMid meet" version="1.0"><path fill="#1f3598" d="M 16.667969 150 L 133.332031 150 C 142.539062 150 150 142.539062 150 133.332031 L 150 16.667969 C 150 7.460938 142.539062 0 133.332031 0 L 16.667969 0 C 7.460938 0 0 7.460938 0 16.667969 L 0 133.332031 C 0 142.539062 7.460938 150 16.667969 150 Z M 16.667969 150 " fill-opacity="1" fill-rule="evenodd"/><path fill="#ffffff" d="M 129.167969 129.167969 L 106.90625 129.167969 L 106.90625 91.253906 C 106.90625 80.859375 102.957031 75.050781 94.730469 75.050781 C 85.78125 75.050781 81.105469 81.097656 81.105469 91.253906 L 81.105469 129.167969 L 59.652344 129.167969 L 59.652344 56.945312 L 81.105469 56.945312 L 81.105469 66.671875 C 81.105469 66.671875 87.554688 54.738281 102.878906 54.738281 C 118.199219 54.738281 129.167969 64.09375 129.167969 83.441406 Z M 34.0625 47.488281 C 26.753906 47.488281 20.832031 41.519531 20.832031 34.160156 C 20.832031 26.800781 26.753906 20.832031 34.0625 20.832031 C 41.367188 20.832031 47.285156 26.800781 47.285156 34.160156 C 47.285156 41.519531 41.367188 47.488281 34.0625 47.488281 Z M 22.984375 129.167969 L 45.351562 129.167969 L 45.351562 56.945312 L 22.984375 56.945312 Z M 22.984375 129.167969 " fill-opacity="1" fill-rule="evenodd"/><path fill="#1f3598" d="M 16.667969 150 L 133.332031 150 C 142.539062 150 150 142.539062 150 133.332031 L 150 16.667969 C 150 7.460938 142.539062 0 133.332031 0 L 16.667969 0 C 7.460938 0 0 7.460938 0 16.667969 L 0 133.332031 C 0 142.539062 7.460938 150 16.667969 150 Z M 16.667969 150 " fill-opacity="1" fill-rule="evenodd"/><path fill="#ffffff" d="M 129.167969 129.167969 L 106.90625 129.167969 L 106.90625 91.253906 C 106.90625 80.859375 102.957031 75.050781 94.730469 75.050781 C 85.78125 75.050781 81.105469 81.097656 81.105469 91.253906 L 81.105469 129.167969 L 59.652344 129.167969 L 59.652344 56.945312 L 81.105469 56.945312 L 81.105469 66.671875 C 81.105469 66.671875 87.554688 54.738281 102.878906 54.738281 C 118.199219 54.738281 129.167969 64.09375 129.167969 83.441406 Z M 34.0625 47.488281 C 26.753906 47.488281 20.832031 41.519531 20.832031 34.160156 C 20.832031 26.800781 26.753906 20.832031 34.0625 20.832031 C 41.367188 20.832031 47.285156 26.800781 47.285156 34.160156 C 47.285156 41.519531 41.367188 47.488281 34.0625 47.488281 Z M 22.984375 129.167969 L 45.351562 129.167969 L 45.351562 56.945312 L 22.984375 56.945312 Z M 22.984375 129.167969 " fill-opacity="1" fill-rule="evenodd"/></svg>
