<svg width="26" height="20" viewBox="0 0 26 20" fill="none" xmlns="http://www.w3.org/2000/svg">
<path d="M21.3746 1.77297C19.7412 0.999676 17.9947 0.437681 16.1689 0.117676C15.9446 0.527911 15.6826 1.07969 15.502 1.51862C13.561 1.22326 11.6379 1.22326 9.73266 1.51862C9.55207 1.07969 9.28415 0.527911 9.0579 0.117676C7.23004 0.437681 5.48157 1.00174 3.8482 1.77706C0.553694 6.81465 -0.339393 11.7271 0.107152 16.5698C2.29224 18.221 4.40986 19.224 6.49174 19.8804C7.00577 19.1645 7.46421 18.4035 7.85915 17.6015C7.10698 17.3123 6.38655 16.9554 5.70584 16.5411C5.88643 16.4057 6.06308 16.2642 6.23374 16.1186C10.3856 18.0836 14.8967 18.0836 18.999 16.1186C19.1716 16.2642 19.3482 16.4057 19.5269 16.5411C18.8441 16.9575 18.1218 17.3144 17.3696 17.6036C17.7645 18.4035 18.221 19.1666 18.737 19.8824C20.8209 19.226 22.9405 18.223 25.1255 16.5698C25.6495 10.9559 24.2305 6.08854 21.3746 1.77297ZM8.42478 13.5916C7.17844 13.5916 6.15633 12.4142 6.15633 10.9805C6.15633 9.54675 7.15661 8.36735 8.42478 8.36735C9.69299 8.36735 10.7151 9.54468 10.6932 10.9805C10.6952 12.4142 9.69299 13.5916 8.42478 13.5916ZM16.8079 13.5916C15.5616 13.5916 14.5395 12.4142 14.5395 10.9805C14.5395 9.54675 15.5397 8.36735 16.8079 8.36735C18.0761 8.36735 19.0982 9.54468 19.0764 10.9805C19.0764 12.4142 18.0761 13.5916 16.8079 13.5916Z" fill="#4D4D4D"/>
</svg>
