<svg width="25" height="24" viewBox="0 0 25 24" fill="none" xmlns="http://www.w3.org/2000/svg">
<path fill-rule="evenodd" clip-rule="evenodd" d="M25 12.9584C24.955 13.3385 24.9157 13.7193 24.8641 14.0985C24.6356 15.7714 24.0545 17.322 23.1444 18.7485C22.1272 20.3426 20.8307 21.6741 19.2091 22.6874C18.3612 23.2172 17.4568 23.6332 16.5063 23.9474C15.9797 24.1213 15.6154 23.8528 15.6128 23.3073C15.6076 22.2348 15.6146 21.1622 15.6097 20.0896C15.6067 19.4362 15.5402 18.7926 15.1772 18.2202C15.0713 18.0533 14.9372 17.9034 14.8116 17.7401C15.2995 17.6503 15.7885 17.5865 16.2636 17.4678C17.5392 17.1494 18.6795 16.5948 19.4566 15.4994C20.0274 14.6948 20.2887 13.7706 20.4037 12.8073C20.4931 12.0586 20.5185 11.3074 20.3581 10.562C20.1968 9.81197 19.8671 9.14087 19.357 8.56166C19.2314 8.41902 19.2064 8.30385 19.2685 8.11936C19.6039 7.12267 19.4635 6.14649 19.0869 5.1901C19.0652 5.13534 18.9715 5.08426 18.9048 5.07452C18.4614 5.0093 18.0433 5.13246 17.6545 5.31306C17.0242 5.60604 16.4147 5.9419 15.7906 6.24822C15.6852 6.2999 15.5399 6.33518 15.4308 6.30801C13.4745 5.82202 11.5217 5.82253 9.56501 6.30759C9.45063 6.3359 9.28866 6.29837 9.18616 6.23407C8.39262 5.73628 7.55376 5.34259 6.64168 5.1059C6.62595 5.1018 6.61064 5.09606 6.5947 5.09288C6.02126 4.97751 5.91647 5.04201 5.75303 5.58769C5.48908 6.4687 5.44137 7.34685 5.75553 8.22838C5.78022 8.29749 5.75105 8.41871 5.70032 8.47532C4.67001 9.62676 4.42585 10.9925 4.5547 12.465C4.63283 13.3577 4.84303 14.2146 5.24887 15.0203C5.8098 16.1336 6.7598 16.8145 7.91053 17.2142C8.63293 17.4652 9.39876 17.5956 10.1569 17.783C10.1627 17.747 10.1671 17.7755 10.1547 17.7882C9.76439 18.1882 9.54626 18.6684 9.45449 19.2115C9.44282 19.2802 9.3947 19.3783 9.33907 19.3989C8.47074 19.7203 7.59751 19.8894 6.73907 19.3739C6.34887 19.1397 6.06407 18.8013 5.83418 18.4165C5.47376 17.813 4.96553 17.3755 4.28272 17.1762C4.03699 17.1045 3.75689 17.1227 3.4947 17.1377C3.31595 17.1481 3.2572 17.2797 3.3771 17.4273C3.48772 17.5631 3.60022 17.7168 3.74814 17.8006C4.40522 18.1726 4.77335 18.7671 5.07397 19.4142C5.25324 19.7998 5.40678 20.1935 5.73897 20.49C6.26803 20.9623 6.90928 21.1405 7.59678 21.1701C8.17866 21.1952 8.76251 21.1753 9.37272 21.1753C9.37178 21.1672 9.38397 21.2274 9.3847 21.2876C9.39345 21.9358 9.4023 22.5841 9.40709 23.2324C9.41168 23.8667 9.02449 24.129 8.41272 23.9201C5.23918 22.8365 2.91064 20.7844 1.35689 17.8843C0.186684 15.7003 -0.183109 13.3546 0.0811619 10.9062C0.357828 8.34262 1.38918 6.0987 3.10991 4.17361C4.90856 2.16156 7.14761 0.824093 9.82355 0.289085C13.7112 -0.488251 17.2618 0.292263 20.3703 2.74959C22.7271 4.61253 24.1856 7.03643 24.7743 9.95656C24.8609 10.3868 24.8939 10.8275 24.9533 11.2631C24.9649 11.3484 24.9843 11.4327 25 11.5175V12.9584Z" fill="#171515"/>
</svg>
