<svg width="24" height="24" viewBox="0 0 24 24" fill="none" xmlns="http://www.w3.org/2000/svg">
<path fill-rule="evenodd" clip-rule="evenodd" d="M24 12.6361C23.9568 13.0067 23.9191 13.378 23.8695 13.7478C23.6502 15.3791 23.0923 16.8911 22.2186 18.2821C21.2421 19.8366 19.9975 21.135 18.4407 22.1231C17.6267 22.6397 16.7585 23.0453 15.846 23.3517C15.3405 23.5213 14.9908 23.2595 14.9883 22.7275C14.9833 21.6817 14.99 20.6358 14.9853 19.5899C14.9824 18.9527 14.9186 18.3251 14.5701 17.767C14.4684 17.6042 14.3397 17.4581 14.2191 17.2988C14.6875 17.2113 15.157 17.149 15.6131 17.0333C16.8376 16.7228 17.9323 16.182 18.6783 15.1139C19.2263 14.3293 19.4771 13.4281 19.5875 12.4887C19.6734 11.7586 19.6978 11.0261 19.5438 10.2993C19.3889 9.56789 19.0724 8.91349 18.5827 8.34869C18.4621 8.20959 18.4381 8.09729 18.4978 7.91739C18.8197 6.94549 18.685 5.99359 18.3234 5.06099C18.3026 5.00759 18.2126 4.95779 18.1486 4.94829C17.7229 4.88469 17.3216 5.00479 16.9483 5.18089C16.3432 5.46659 15.7581 5.79409 15.159 6.09279C15.0578 6.14319 14.9183 6.17759 14.8136 6.15109C12.9355 5.67719 11.0608 5.67769 9.18242 6.15069C9.07262 6.17829 8.91712 6.14169 8.81872 6.07899C8.05692 5.59359 7.25162 5.20969 6.37602 4.97889C6.36092 4.97489 6.34622 4.96929 6.33092 4.96619C5.78042 4.85369 5.67982 4.91659 5.52292 5.44869C5.26952 6.30779 5.22371 7.16409 5.52531 8.02369C5.54901 8.09109 5.52102 8.20929 5.47232 8.26449C4.48322 9.38729 4.24882 10.7191 4.37252 12.1549C4.44752 13.0254 4.64932 13.861 5.03892 14.6467C5.57742 15.7323 6.48942 16.3962 7.59412 16.786C8.28762 17.0308 9.02282 17.1579 9.75062 17.3407C9.75622 17.3055 9.76042 17.3333 9.74852 17.3457C9.37382 17.7358 9.16441 18.204 9.07631 18.7336C9.06511 18.8006 9.01892 18.8963 8.96552 18.9164C8.13192 19.2298 7.29362 19.3947 6.46952 18.892C6.09492 18.6636 5.82152 18.3336 5.60082 17.9584C5.25482 17.3699 4.76692 16.9433 4.11142 16.7489C3.87552 16.679 3.60662 16.6968 3.35492 16.7114C3.18332 16.7215 3.12692 16.8499 3.24202 16.9938C3.34822 17.1262 3.45622 17.2761 3.59822 17.3578C4.22902 17.7206 4.58242 18.3003 4.87102 18.9313C5.04312 19.3073 5.19052 19.6912 5.50942 19.9803C6.01732 20.4409 6.63292 20.6146 7.29292 20.6435C7.85152 20.668 8.41202 20.6486 8.99782 20.6486C8.99692 20.6407 9.00862 20.6994 9.00932 20.7581C9.01772 21.3902 9.02622 22.0223 9.03082 22.6545C9.03522 23.273 8.66352 23.5288 8.07622 23.3251C5.02962 22.2684 2.79422 20.2674 1.30262 17.4394C0.179216 15.3098 -0.175785 13.0224 0.0779155 10.6349C0.343515 8.13509 1.33362 5.94699 2.98552 4.06979C4.71222 2.10779 6.86171 0.803594 9.43061 0.281894C13.1627 -0.476106 16.5713 0.284993 19.5555 2.68119C21.818 4.49779 23.2182 6.86139 23.7833 9.70889C23.8665 10.1284 23.8981 10.5582 23.9552 10.9829C23.9663 11.0661 23.9849 11.1483 24 11.231V12.6361Z" fill="#333333"/>
</svg>
