<svg width="29" height="32" viewBox="0 0 29 32" fill="none" xmlns="http://www.w3.org/2000/svg">
<path fill-rule="evenodd" clip-rule="evenodd" d="M1.25835 5.23174V15.3833C1.2584 21.9517 5.30349 27.8418 11.4339 30.2001L12.8219 30.7334C13.7462 31.0889 14.7695 31.0889 15.6938 30.7334L17.0817 30.2001C23.2121 27.8418 27.2572 21.9517 27.2573 15.3833V5.23174C27.2625 4.45143 26.8095 3.74063 26.1 3.41581C22.3666 1.78626 18.3312 0.96346 14.2578 1.00124C10.1845 0.96346 6.14903 1.78626 2.41563 3.41581C1.70612 3.74063 1.25313 4.45143 1.25835 5.23174Z" stroke="#1F3598" stroke-width="2" stroke-linecap="round" stroke-linejoin="round"/>
<path d="M19.6266 11.251L13.2455 17.632C12.9036 17.9731 12.3501 17.9731 12.0082 17.632L10.0083 15.6255" stroke="#1F3598" stroke-width="2" stroke-linecap="round" stroke-linejoin="round"/>
</svg>
