<svg width="30" height="30" viewBox="0 0 30 30" fill="none" xmlns="http://www.w3.org/2000/svg">
<path fill-rule="evenodd" clip-rule="evenodd" d="M18.5613 7.07258C17.9902 7.07234 17.4263 7.19889 16.9101 7.4431C16.3939 7.68731 15.9383 8.04308 15.5763 8.48473C15.2143 8.92638 14.9549 9.44289 14.8167 9.99699C14.6786 10.5511 14.6652 11.1289 14.7775 11.6888C14.8162 11.8828 14.8083 12.0832 14.7544 12.2736C14.7006 12.4639 14.6023 12.6388 14.4677 12.7837C14.3331 12.9287 14.166 13.0396 13.9802 13.1075C13.7944 13.1753 13.5951 13.198 13.3988 13.1738C10.711 12.8437 8.1772 11.7388 6.1063 9.99383C6.14505 10.7463 6.4063 11.5463 6.97255 12.3838L7.8213 13.6388L6.42755 14.2326L6.1588 14.3476C6.3588 14.5763 6.5988 14.8101 6.86755 15.0413C7.22681 15.3488 7.60688 15.6312 8.00504 15.8863L8.0188 15.8951H8.02004L9.95505 17.0688L7.93005 18.0813C7.83004 18.1313 7.73005 18.1763 7.63005 18.2163C8.06547 18.5781 8.54515 18.8831 9.05755 19.1238L10.795 19.9451L9.34005 21.2001C8.5463 21.8851 7.74755 22.3963 6.7113 22.6663C8.30059 23.5129 10.0744 23.9539 11.875 23.9501C17.8825 23.9501 22.72 19.1563 22.72 13.2826V12.6326L23.2513 12.2588C24.0813 11.6763 24.6675 10.8888 25.0875 9.98758H22.3875L22.0475 9.27508C21.7345 8.61592 21.2408 8.05908 20.624 7.66922C20.0071 7.27936 19.2923 7.07247 18.5625 7.07258H18.5613ZM4.4613 16.1976C4.34334 16.3327 4.25583 16.4916 4.20471 16.6635C4.1536 16.8354 4.14007 17.0162 4.16505 17.1938C4.30629 18.1951 4.90505 19.0576 5.56755 19.7163C5.74755 19.8951 5.94005 20.0663 6.14255 20.2301L6.0488 20.2551C5.44755 20.4051 4.6363 20.4363 3.28504 20.3051C3.02987 20.28 2.77317 20.3341 2.54974 20.4599C2.32631 20.5856 2.14697 20.7771 2.03603 21.0083C1.92509 21.2394 1.88792 21.4991 1.92956 21.7521C1.97119 22.0051 2.08963 22.2392 2.26879 22.4226C3.51976 23.7012 5.01416 24.7164 6.66382 25.4081C8.31348 26.0998 10.085 26.4541 11.8738 26.4501C19.015 26.4501 24.8725 20.9051 25.2038 13.9076C26.8163 12.5538 27.6225 10.7201 28.0575 9.05383C28.1059 8.86889 28.1112 8.67533 28.073 8.48802C28.0349 8.30071 27.9543 8.12466 27.8374 7.97338C27.7205 7.82211 27.5705 7.69966 27.3989 7.61544C27.2273 7.53122 27.0387 7.48748 26.8475 7.48758H23.9063C23.1869 6.37048 22.1355 5.50688 20.8999 5.01812C19.6643 4.52936 18.3067 4.44002 17.0177 4.76264C15.7288 5.08526 14.5733 5.80363 13.7136 6.8168C12.854 7.82998 12.3334 9.08704 12.225 10.4113C9.92087 9.81152 7.85921 8.51234 6.3238 6.69258C6.18782 6.53181 6.01343 6.40799 5.81682 6.33262C5.62021 6.25725 5.40774 6.23276 5.19914 6.26144C4.99053 6.29012 4.79256 6.37103 4.62358 6.49666C4.4546 6.6223 4.32009 6.78858 4.23254 6.98008C3.47504 8.63258 3.33004 10.5376 4.17504 12.4751L3.88254 12.6001C3.60264 12.7194 3.37584 12.9366 3.24467 13.2112C3.11351 13.4857 3.08697 13.7986 3.17004 14.0913C3.40254 14.9063 3.92505 15.6263 4.46005 16.1976H4.4613Z" fill="#FFFFFF"/>
</svg>
