<svg width="28" height="23" viewBox="0 0 28 23" fill="none" xmlns="http://www.w3.org/2000/svg">
<path fill-rule="evenodd" clip-rule="evenodd" d="M17.5613 3.07258C16.9902 3.07234 16.4263 3.19889 15.9101 3.4431C15.3939 3.68731 14.9383 4.04308 14.5763 4.48473C14.2143 4.92638 13.9549 5.44289 13.8167 5.99699C13.6786 6.55108 13.6652 7.12893 13.7775 7.68883C13.8162 7.88283 13.8083 8.08323 13.7544 8.27357C13.7006 8.46391 13.6023 8.63875 13.4677 8.78372C13.3331 8.92869 13.166 9.03964 12.9802 9.10746C12.7944 9.17527 12.5951 9.19802 12.3988 9.17383C9.71096 8.84365 7.1772 7.73877 5.1063 5.99383C5.14505 6.74633 5.4063 7.54633 5.97255 8.38383L6.8213 9.63883L5.42755 10.2326L5.1588 10.3476C5.3588 10.5763 5.5988 10.8101 5.86755 11.0413C6.22681 11.3488 6.60688 11.6312 7.00504 11.8863L7.0188 11.8951H7.02004L8.95505 13.0688L6.93005 14.0813C6.83004 14.1313 6.73005 14.1763 6.63005 14.2163C7.06547 14.5781 7.54515 14.8831 8.05755 15.1238L9.79504 15.9451L8.34005 17.2001C7.5463 17.8851 6.74755 18.3963 5.7113 18.6663C7.30059 19.5129 9.07435 19.9539 10.875 19.9501C16.8825 19.9501 21.72 15.1563 21.72 9.28258V8.63258L22.2513 8.25883C23.0813 7.67633 23.6675 6.88883 24.0875 5.98758H21.3875L21.0475 5.27508C20.7345 4.61592 20.2408 4.05908 19.624 3.66922C19.0071 3.27936 18.2923 3.07247 17.5625 3.07258H17.5613ZM3.4613 12.1976C3.34334 12.3327 3.25583 12.4916 3.20471 12.6635C3.1536 12.8354 3.14007 13.0162 3.16505 13.1938C3.30629 14.1951 3.90505 15.0576 4.56755 15.7163C4.74755 15.8951 4.94005 16.0663 5.14255 16.2301L5.0488 16.2551C4.44755 16.4051 3.6363 16.4363 2.28504 16.3051C2.02987 16.28 1.77317 16.3341 1.54974 16.4599C1.32631 16.5856 1.14697 16.7771 1.03603 17.0083C0.92509 17.2394 0.887919 17.4991 0.929557 17.7521C0.971195 18.0051 1.08963 18.2392 1.26879 18.4226C2.51976 19.7012 4.01416 20.7164 5.66382 21.4081C7.31348 22.0998 9.08498 22.4541 10.8738 22.4501C18.015 22.4501 23.8725 16.9051 24.2038 9.90758C25.8163 8.55383 26.6225 6.72008 27.0575 5.05383C27.1059 4.86889 27.1112 4.67533 27.073 4.48802C27.0349 4.30071 26.9543 4.12466 26.8374 3.97338C26.7205 3.82211 26.5705 3.69966 26.3989 3.61544C26.2273 3.53122 26.0387 3.48748 25.8475 3.48758H22.9063C22.1869 2.37048 21.1355 1.50688 19.8999 1.01812C18.6643 0.529363 17.3067 0.440016 16.0177 0.762636C14.7288 1.08526 13.5733 1.80363 12.7136 2.8168C11.854 3.82998 11.3334 5.08704 11.225 6.41133C8.92087 5.81152 6.85921 4.51234 5.3238 2.69258C5.18782 2.53181 5.01343 2.40799 4.81682 2.33262C4.62021 2.25725 4.40774 2.23276 4.19914 2.26144C3.99053 2.29012 3.79256 2.37103 3.62358 2.49666C3.4546 2.6223 3.32009 2.78858 3.23254 2.98008C2.47504 4.63258 2.33004 6.53758 3.17504 8.47508L2.88254 8.60008C2.60264 8.71935 2.37584 8.93662 2.24467 9.21115C2.11351 9.48568 2.08697 9.79863 2.17004 10.0913C2.40254 10.9063 2.92505 11.6263 3.46005 12.1976H3.4613Z" fill="white"/>
</svg>
