<svg width="28" height="23" viewBox="0 0 28 23" fill="none" xmlns="http://www.w3.org/2000/svg">
<path fill-rule="evenodd" clip-rule="evenodd" d="M17.5614 3.07258C16.9904 3.07234 16.4264 3.19889 15.9102 3.4431C15.394 3.68731 14.9384 4.04308 14.5764 4.48473C14.2144 4.92638 13.955 5.44289 13.8169 5.99699C13.6787 6.55108 13.6653 7.12893 13.7777 7.68883C13.8163 7.88283 13.8084 8.08323 13.7546 8.27357C13.7007 8.46391 13.6024 8.63875 13.4678 8.78372C13.3332 8.92869 13.1662 9.03964 12.9803 9.10746C12.7945 9.17527 12.5952 9.19802 12.3989 9.17383C9.71108 8.84365 7.17732 7.73877 5.10642 5.99383C5.14517 6.74633 5.40642 7.54633 5.97267 8.38383L6.82142 9.63883L5.42767 10.2326L5.15892 10.3476C5.35892 10.5763 5.59892 10.8101 5.86767 11.0413C6.22694 11.3488 6.60701 11.6312 7.00517 11.8863L7.01892 11.8951H7.02017L8.95517 13.0688L6.93017 14.0813C6.83017 14.1313 6.73017 14.1763 6.63017 14.2163C7.06559 14.5781 7.54528 14.8831 8.05767 15.1238L9.79517 15.9451L8.34017 17.2001C7.54642 17.8851 6.74767 18.3963 5.71142 18.6663C7.30071 19.5129 9.07447 19.9539 10.8752 19.9501C16.8827 19.9501 21.7202 15.1563 21.7202 9.28258V8.63258L22.2514 8.25883C23.0814 7.67633 23.6677 6.88883 24.0877 5.98758H21.3877L21.0477 5.27508C20.7346 4.61592 20.241 4.05908 19.6241 3.66922C19.0072 3.27936 18.2924 3.07247 17.5627 3.07258H17.5614ZM3.46142 12.1976C3.34346 12.3327 3.25595 12.4916 3.20484 12.6635C3.15372 12.8354 3.14019 13.0162 3.16517 13.1938C3.30642 14.1951 3.90517 15.0576 4.56767 15.7163C4.74767 15.8951 4.94017 16.0663 5.14267 16.2301L5.04892 16.2551C4.44767 16.4051 3.63642 16.4363 2.28517 16.3051C2.02999 16.28 1.77329 16.3341 1.54986 16.4599C1.32643 16.5856 1.14709 16.7771 1.03615 17.0083C0.925212 17.2394 0.888042 17.4991 0.929679 17.7521C0.971317 18.0051 1.08975 18.2392 1.26892 18.4226C2.51988 19.7012 4.01428 20.7164 5.66394 21.4081C7.31361 22.0998 9.0851 22.4541 10.8739 22.4501C18.0152 22.4501 23.8727 16.9051 24.2039 9.90758C25.8164 8.55383 26.6227 6.72008 27.0577 5.05383C27.106 4.86889 27.1113 4.67533 27.0732 4.48802C27.035 4.30071 26.9544 4.12466 26.8375 3.97338C26.7207 3.82211 26.5707 3.69966 26.3991 3.61544C26.2275 3.53122 26.0388 3.48748 25.8477 3.48758H22.9064C22.187 2.37048 21.1356 1.50688 19.9 1.01812C18.6645 0.529363 17.3068 0.440016 16.0179 0.762636C14.7289 1.08526 13.5734 1.80363 12.7138 2.8168C11.8541 3.82998 11.3335 5.08704 11.2252 6.41133C8.92099 5.81152 6.85933 4.51234 5.32392 2.69258C5.18794 2.53181 5.01355 2.40799 4.81694 2.33262C4.62033 2.25725 4.40786 2.23276 4.19926 2.26144C3.99066 2.29012 3.79268 2.37103 3.6237 2.49666C3.45472 2.6223 3.32021 2.78858 3.23267 2.98008C2.47517 4.63258 2.33017 6.53758 3.17517 8.47508L2.88267 8.60008C2.60276 8.71935 2.37596 8.93662 2.2448 9.21115C2.11363 9.48568 2.08709 9.79863 2.17017 10.0913C2.40267 10.9063 2.92517 11.6263 3.46017 12.1976H3.46142Z" fill="#757575"/>
</svg>
