<svg width="100" height="15" viewBox="0 0 100 15" fill="none" xmlns="http://www.w3.org/2000/svg">
<path d="M28.3877 2.84076V6.92926H33.2191V8.92042H28.3877V14.7346H26.0654V0.849609H33.6195V2.84076H28.3877Z" fill="#333333"/>
<path d="M40.32 14.708V13.354H40.2933C39.5993 14.416 38.6117 14.947 37.3571 14.947C36.3695 14.947 35.5954 14.6815 35.0348 14.1505C34.4743 13.6195 34.1807 12.9027 34.1807 12C34.1807 11.0708 34.4476 10.3275 35.0081 9.76995C35.5687 9.21243 36.3695 8.8673 37.4372 8.73456L40.3467 8.33632C40.3467 6.98234 39.7061 6.31862 38.4515 6.31862C37.8376 6.31862 37.2503 6.42482 36.6898 6.61066C36.1292 6.7965 35.5954 7.08853 35.1683 7.40712V5.44251C35.5153 5.23012 36.0492 5.01773 36.7699 4.83189C37.4906 4.64605 38.1312 4.56641 38.6917 4.56641C39.973 4.56641 40.9339 4.88499 41.5745 5.54871C42.2152 6.21243 42.5355 7.16818 42.5355 8.41597V14.6815H40.32V14.708ZM36.3695 11.7877C36.3695 12.2124 36.5296 12.5576 36.8232 12.7965C37.1436 13.062 37.5173 13.1682 37.9977 13.1682C38.665 13.1682 39.2256 12.9293 39.6527 12.4779C40.0798 12.0266 40.2933 11.4425 40.2933 10.7523V9.8496L38.1312 10.1416C37.4639 10.2478 36.9834 10.4071 36.7165 10.6461C36.5029 10.9115 36.3695 11.2832 36.3695 11.7877Z" fill="#333333"/>
<path d="M47.473 1.32744C47.473 1.69912 47.3395 1.99115 47.0726 2.25664C46.8057 2.52213 46.4854 2.60177 46.085 2.60177C45.6846 2.60177 45.391 2.46903 45.124 2.23009C44.8571 1.99115 44.7236 1.67257 44.7236 1.32744C44.7236 0.955754 44.8571 0.637169 45.124 0.398231C45.391 0.159292 45.7113 0 46.085 0C46.4854 0 46.8057 0.132744 47.0726 0.398231C47.3395 0.663718 47.473 0.955754 47.473 1.32744ZM44.9372 14.708V4.80532H47.1794V14.708H44.9372Z" fill="#333333"/>
<path d="M55.8278 6.98198C55.721 6.90233 55.5075 6.82268 55.2673 6.74304C55.0003 6.66339 54.7601 6.63684 54.5466 6.63684C53.8792 6.63684 53.3721 6.90233 52.9717 7.45985C52.5713 8.01738 52.3577 8.73419 52.3577 9.63685V14.7077H50.0889V4.80498H52.3311V6.71649H52.3577C52.5713 6.05277 52.9183 5.54835 53.3721 5.17666C53.8258 4.80498 54.333 4.61914 54.9202 4.61914C55.3206 4.61914 55.6143 4.67224 55.8278 4.75188V6.98198Z" fill="#333333"/>
<path d="M57.8564 14.708V0.849609H60.1787V14.7346H57.8564V14.708Z" fill="#333333"/>
<path d="M64.3698 10.4335C64.4232 11.3361 64.6901 12.0264 65.1973 12.5043C65.7044 12.9822 66.4251 13.2211 67.3594 13.2211C67.9199 13.2211 68.4538 13.1415 68.9876 12.9556C69.4948 12.7698 69.9486 12.5574 70.349 12.2654V14.1503C69.9753 14.3892 69.4681 14.6016 68.8275 14.7609C68.1868 14.9202 67.5195 14.9999 66.8255 14.9999C65.304 14.9999 64.1563 14.5485 63.3288 13.6459C62.5013 12.7432 62.0742 11.4954 62.0742 9.90252C62.0742 8.84057 62.2878 7.91136 62.6882 7.1149C63.0885 6.31844 63.6758 5.70782 64.3965 5.25649C65.1172 4.80516 65.918 4.59277 66.7988 4.59277C68.1602 4.59277 69.2279 5.01755 70.002 5.84056C70.776 6.66357 71.1497 7.83172 71.1497 9.31844V10.4335H64.3698ZM68.9076 8.73437C68.9076 7.93791 68.7207 7.35384 68.347 6.92906C67.9733 6.50428 67.4661 6.31844 66.7988 6.31844C66.1849 6.31844 65.651 6.53083 65.224 6.98216C64.7702 7.43349 64.5033 8.01756 64.3698 8.73437H68.9076Z" fill="#333333"/>
<path d="M78.57 14.708V13.354H78.5433C77.8493 14.416 76.8617 14.947 75.6071 14.947C74.6195 14.947 73.8454 14.6815 73.2848 14.1505C72.7243 13.6195 72.4307 12.9027 72.4307 12C72.4307 11.0708 72.6976 10.3275 73.2581 9.76995C73.8187 9.21243 74.6195 8.8673 75.6872 8.73455L78.5967 8.33632C78.5967 6.98234 77.9561 6.31862 76.7015 6.31862C76.0876 6.31862 75.5003 6.42482 74.9398 6.61066C74.3792 6.7965 73.8454 7.08853 73.4183 7.40712V5.44251C73.7653 5.23012 74.2992 5.01773 75.0199 4.83189C75.7406 4.64605 76.3812 4.56641 76.9417 4.56641C78.223 4.56641 79.1839 4.88499 79.8246 5.54871C80.4652 6.21243 80.7855 7.16818 80.7855 8.41597V14.6815H78.57V14.708ZM74.6462 11.7877C74.6462 12.2124 74.8063 12.5576 75.0999 12.7965C75.4203 13.062 75.794 13.1682 76.2744 13.1682C76.9417 13.1682 77.5023 12.9293 77.9294 12.4779C78.3565 12.0266 78.57 11.4425 78.57 10.7523V9.8496L76.4079 10.1416C75.7406 10.2478 75.2601 10.4071 74.9932 10.6461C74.7796 10.9115 74.6462 11.2832 74.6462 11.7877Z" fill="#333333"/>
<path d="M88.7933 6.98198C88.6865 6.90233 88.473 6.82268 88.2327 6.74304C87.9658 6.66339 87.7256 6.63684 87.512 6.63684C86.8447 6.63684 86.3376 6.90233 85.9372 7.45985C85.5368 8.01738 85.3232 8.73419 85.3232 9.63685V14.7077H83.0811V4.80498H85.3232V6.71649H85.3499C85.5635 6.05277 85.9105 5.54835 86.3643 5.17666C86.818 4.80498 87.3252 4.61914 87.9124 4.61914C88.3128 4.61914 88.6064 4.67224 88.82 4.75188V6.98198H88.7933Z" fill="#333333"/>
<path d="M97.0677 14.708V9.15933C97.0677 8.23013 96.9076 7.53986 96.5873 7.08853C96.2669 6.63721 95.7598 6.39827 95.0658 6.39827C94.3984 6.39827 93.8112 6.66375 93.3841 7.16818C92.9303 7.67261 92.7168 8.30977 92.7168 9.07969V14.708H90.4746V4.80534H92.7168V6.39827H92.7435C93.4909 5.17703 94.5586 4.56641 95.9733 4.56641C97.041 4.56641 97.8418 4.91154 98.4291 5.57526C99.0163 6.23898 99.3099 7.27437 99.3099 8.62836V14.708H97.0677Z" fill="#333333"/>
<rect x="19.1357" y="2.69238" width="8.37183" height="2.39287" rx="1.19644" transform="rotate(-180 19.1357 2.69238)" fill="#333333"/>
<rect x="19.1357" y="8.6748" width="19.1356" height="2.39287" rx="1.19644" transform="rotate(-180 19.1357 8.6748)" fill="#333333"/>
<rect x="19.1357" y="14.6572" width="14.3517" height="2.39287" rx="1.19644" transform="rotate(-180 19.1357 14.6572)" fill="#333333"/>
</svg>
