<svg width="31" height="30" viewBox="0 0 31 30" fill="none" xmlns="http://www.w3.org/2000/svg">
<path fill-rule="evenodd" clip-rule="evenodd" d="M19.0614 7.07258C18.4904 7.07234 17.9264 7.19889 17.4102 7.4431C16.894 7.68731 16.4384 8.04308 16.0764 8.48473C15.7144 8.92638 15.455 9.44289 15.3169 9.99699C15.1787 10.5511 15.1653 11.1289 15.2777 11.6888C15.3163 11.8828 15.3084 12.0832 15.2546 12.2736C15.2007 12.4639 15.1024 12.6388 14.9678 12.7837C14.8332 12.9287 14.6662 13.0396 14.4803 13.1075C14.2945 13.1753 14.0952 13.198 13.8989 13.1738C11.2111 12.8437 8.67732 11.7388 6.60642 9.99383C6.64517 10.7463 6.90642 11.5463 7.47267 12.3838L8.32142 13.6388L6.92767 14.2326L6.65892 14.3476C6.85892 14.5763 7.09892 14.8101 7.36767 15.0413C7.72694 15.3488 8.10701 15.6312 8.50517 15.8863L8.51892 15.8951H8.52017L10.4552 17.0688L8.43017 18.0813C8.33017 18.1313 8.23017 18.1763 8.13017 18.2163C8.56559 18.5781 9.04528 18.8831 9.55767 19.1238L11.2952 19.9451L9.84017 21.2001C9.04642 21.8851 8.24767 22.3963 7.21142 22.6663C8.80071 23.5129 10.5745 23.9539 12.3752 23.9501C18.3827 23.9501 23.2202 19.1563 23.2202 13.2826V12.6326L23.7514 12.2588C24.5814 11.6763 25.1677 10.8888 25.5877 9.98758H22.8877L22.5477 9.27508C22.2346 8.61592 21.741 8.05908 21.1241 7.66922C20.5072 7.27936 19.7924 7.07247 19.0627 7.07258H19.0614ZM4.96142 16.1976C4.84346 16.3327 4.75595 16.4916 4.70484 16.6635C4.65372 16.8354 4.64019 17.0162 4.66517 17.1938C4.80642 18.1951 5.40517 19.0576 6.06767 19.7163C6.24767 19.8951 6.44017 20.0663 6.64267 20.2301L6.54892 20.2551C5.94767 20.4051 5.13642 20.4363 3.78517 20.3051C3.52999 20.28 3.27329 20.3341 3.04986 20.4599C2.82643 20.5856 2.64709 20.7771 2.53615 21.0083C2.42521 21.2394 2.38804 21.4991 2.42968 21.7521C2.47132 22.0051 2.58975 22.2392 2.76892 22.4226C4.01988 23.7012 5.51428 24.7164 7.16394 25.4081C8.81361 26.0998 10.5851 26.4541 12.3739 26.4501C19.5152 26.4501 25.3727 20.9051 25.7039 13.9076C27.3164 12.5538 28.1227 10.7201 28.5577 9.05383C28.606 8.86889 28.6113 8.67533 28.5732 8.48802C28.535 8.30071 28.4544 8.12466 28.3375 7.97338C28.2207 7.82211 28.0707 7.69966 27.8991 7.61544C27.7275 7.53122 27.5388 7.48748 27.3477 7.48758H24.4064C23.687 6.37048 22.6356 5.50688 21.4 5.01812C20.1645 4.52936 18.8068 4.44002 17.5179 4.76264C16.2289 5.08526 15.0734 5.80363 14.2138 6.8168C13.3541 7.82998 12.8335 9.08704 12.7252 10.4113C10.421 9.81152 8.35933 8.51234 6.82392 6.69258C6.68794 6.53181 6.51355 6.40799 6.31694 6.33262C6.12033 6.25725 5.90786 6.23276 5.69926 6.26144C5.49066 6.29012 5.29268 6.37103 5.1237 6.49666C4.95472 6.6223 4.82021 6.78858 4.73267 6.98008C3.97517 8.63258 3.83017 10.5376 4.67517 12.4751L4.38267 12.6001C4.10276 12.7194 3.87596 12.9366 3.7448 13.2112C3.61363 13.4857 3.58709 13.7986 3.67017 14.0913C3.90267 14.9063 4.42517 15.6263 4.96017 16.1976H4.96142Z" fill="#2FBCDB"/>
</svg>
