<svg width="31" height="30" viewBox="0 0 31 30" fill="none" xmlns="http://www.w3.org/2000/svg">
<path fill-rule="evenodd" clip-rule="evenodd" d="M30.5 15.6755C30.446 16.1353 30.3989 16.5959 30.3368 17.0546C30.0627 19.0783 29.3654 20.954 28.2732 22.6797C27.0527 24.608 25.4969 26.2188 23.5509 27.4445C22.5334 28.0854 21.4482 28.5885 20.3075 28.9686C19.6756 29.179 19.2385 28.8543 19.2353 28.1942C19.2291 26.8969 19.2375 25.5995 19.2316 24.302C19.228 23.5115 19.1483 22.7329 18.7126 22.0406C18.5855 21.8386 18.4246 21.6574 18.2739 21.4597C18.8593 21.3512 19.4463 21.274 20.0163 21.1305C21.547 20.7452 22.9154 20.0744 23.8479 18.7494C24.5329 17.776 24.8463 16.658 24.9844 15.4926C25.0917 14.5869 25.1222 13.6783 24.9297 12.7766C24.7361 11.8694 24.3404 11.0575 23.7283 10.3569C23.5776 10.1844 23.5476 10.045 23.6222 9.82179C24.0247 8.6161 23.8562 7.43526 23.4042 6.27834C23.3783 6.21211 23.2657 6.15038 23.1857 6.13851C22.6536 6.05965 22.152 6.20864 21.6853 6.42715C20.929 6.7815 20.1976 7.18784 19.4487 7.5583C19.3223 7.62088 19.1478 7.66353 19.0171 7.63071C16.6694 7.04275 14.326 7.04335 11.978 7.63012C11.8408 7.66438 11.6464 7.61901 11.5233 7.54126C10.5711 6.93905 9.56446 6.46276 8.47001 6.1765C8.4511 6.17158 8.43272 6.16454 8.41364 6.16073C7.72551 6.02116 7.59971 6.09917 7.4036 6.75929C7.08682 7.82506 7.0296 8.88727 7.40668 9.95373C7.43627 10.0373 7.40129 10.1839 7.3404 10.2525C6.10397 11.6453 5.81096 13.2975 5.96559 15.0786C6.05933 16.1585 6.31162 17.195 6.79869 18.1697C7.47176 19.5165 8.6118 20.34 9.9926 20.8236C10.8596 21.1273 11.7785 21.285 12.6882 21.5117C12.6953 21.4681 12.7006 21.5026 12.6857 21.5179C12.2173 22.0019 11.9556 22.5828 11.8453 23.2397C11.8314 23.3228 11.7736 23.4415 11.7069 23.4665C10.6648 23.8553 9.61706 24.0598 8.58683 23.4362C8.11867 23.1529 7.77683 22.7434 7.50101 22.278C7.06852 21.548 6.45864 21.0187 5.63923 20.7777C5.34434 20.6909 5.00823 20.713 4.69359 20.7311C4.47909 20.7436 4.40862 20.9029 4.55256 21.0814C4.68529 21.2457 4.82025 21.4316 4.9978 21.5329C5.78625 21.9831 6.22798 22.7021 6.58881 23.485C6.80382 23.9514 6.98812 24.4277 7.38675 24.7863C8.02169 25.3576 8.79115 25.5732 9.61612 25.609C10.3143 25.6394 11.015 25.6153 11.7472 25.6153C11.7461 25.6056 11.7607 25.6783 11.7617 25.7512C11.7721 26.5353 11.7828 27.3195 11.7884 28.1037C11.794 28.8711 11.3293 29.1883 10.5952 28.9356C6.78706 27.6248 3.9928 25.1424 2.12819 21.6342C0.724053 18.9923 0.280267 16.1548 0.597391 13.1929C0.929397 10.0919 2.16702 7.37743 4.23193 5.04874C6.39022 2.61482 9.07714 0.996951 12.2882 0.349719C16.9534 -0.590645 21.2141 0.353535 24.9444 3.32615C27.7725 5.57972 29.5227 8.51181 30.2291 12.0442C30.3331 12.5647 30.3727 13.0978 30.444 13.6247C30.4579 13.7279 30.4811 13.8299 30.5 13.9325V15.6755Z" fill="#2FBCDB"/>
</svg>
