<svg width="28" height="23" viewBox="0 0 28 23" fill="none" xmlns="http://www.w3.org/2000/svg">
<path fill-rule="evenodd" clip-rule="evenodd" d="M17.5614 2.65156C16.9904 2.65132 16.4264 2.77787 15.9102 3.02208C15.394 3.26629 14.9384 3.62206 14.5764 4.06371C14.2144 4.50536 13.955 5.02187 13.8169 5.57597C13.6787 6.13006 13.6653 6.70791 13.7777 7.26781C13.8163 7.46181 13.8084 7.66221 13.7546 7.85255C13.7007 8.04289 13.6024 8.21773 13.4678 8.3627C13.3332 8.50766 13.1662 8.61862 12.9803 8.68644C12.7945 8.75425 12.5952 8.777 12.3989 8.75281C9.71108 8.42263 7.17732 7.31775 5.10642 5.57281C5.14517 6.32531 5.40642 7.12531 5.97267 7.96281L6.82142 9.21781L5.42767 9.81156L5.15892 9.92656C5.35892 10.1553 5.59892 10.3891 5.86767 10.6203C6.22694 10.9278 6.60701 11.2102 7.00517 11.4653L7.01892 11.4741H7.02017L8.95517 12.6478L6.93017 13.6603C6.83017 13.7103 6.73017 13.7553 6.63017 13.7953C7.06559 14.1571 7.54528 14.4621 8.05767 14.7028L9.79517 15.5241L8.34017 16.7791C7.54642 17.4641 6.74767 17.9753 5.71142 18.2453C7.30071 19.0919 9.07447 19.5328 10.8752 19.5291C16.8827 19.5291 21.7202 14.7353 21.7202 8.86156V8.21156L22.2514 7.83781C23.0814 7.25531 23.6677 6.46781 24.0877 5.56656H21.3877L21.0477 4.85406C20.7346 4.1949 20.241 3.63806 19.6241 3.2482C19.0072 2.85834 18.2924 2.65145 17.5627 2.65156H17.5614ZM3.46142 11.7766C3.34346 11.9116 3.25595 12.0705 3.20484 12.2424C3.15372 12.4143 3.14019 12.5952 3.16517 12.7728C3.30642 13.7741 3.90517 14.6366 4.56767 15.2953C4.74767 15.4741 4.94017 15.6453 5.14267 15.8091L5.04892 15.8341C4.44767 15.9841 3.63642 16.0153 2.28517 15.8841C2.02999 15.859 1.77329 15.9131 1.54986 16.0388C1.32643 16.1646 1.14709 16.3561 1.03615 16.5872C0.925212 16.8184 0.888042 17.0781 0.929679 17.3311C0.971317 17.5841 1.08975 17.8181 1.26892 18.0016C2.51988 19.2802 4.01428 20.2954 5.66394 20.9871C7.31361 21.6788 9.0851 22.0331 10.8739 22.0291C18.0152 22.0291 23.8727 16.4841 24.2039 9.48656C25.8164 8.13281 26.6227 6.29906 27.0577 4.63281C27.106 4.44787 27.1113 4.25431 27.0732 4.067C27.035 3.87969 26.9544 3.70363 26.8375 3.55236C26.7207 3.40109 26.5707 3.27864 26.3991 3.19442C26.2275 3.1102 26.0388 3.06646 25.8477 3.06656H22.9064C22.187 1.94946 21.1356 1.08586 19.9 0.597101C18.6645 0.108343 17.3068 0.0189957 16.0179 0.341615C14.7289 0.664235 13.5734 1.38261 12.7138 2.39578C11.8541 3.40896 11.3335 4.66602 11.2252 5.99031C8.92099 5.3905 6.85933 4.09132 5.32392 2.27156C5.18794 2.11079 5.01355 1.98697 4.81694 1.9116C4.62033 1.83623 4.40786 1.81174 4.19926 1.84042C3.99066 1.8691 3.79268 1.95001 3.6237 2.07564C3.45472 2.20127 3.32021 2.36756 3.23267 2.55906C2.47517 4.21156 2.33017 6.11656 3.17517 8.05406L2.88267 8.17906C2.60276 8.29833 2.37596 8.5156 2.2448 8.79013C2.11363 9.06466 2.08709 9.37761 2.17017 9.67031C2.40267 10.4853 2.92517 11.2053 3.46017 11.7766H3.46142Z" fill="#757575"/>
</svg>
