<svg width="30" height="31" viewBox="0 0 30 31" fill="none" xmlns="http://www.w3.org/2000/svg">
<path fill-rule="evenodd" clip-rule="evenodd" d="M30 16.2546C29.946 16.7144 29.8989 17.175 29.8368 17.6337C29.5627 19.6574 28.8654 21.5331 27.7732 23.2588C26.5527 25.1871 24.9969 26.7979 23.0509 28.0236C22.0334 28.6645 20.9482 29.1676 19.8075 29.5477C19.1756 29.7581 18.7385 29.4334 18.7353 28.7733C18.7291 27.476 18.7375 26.1786 18.7316 24.8811C18.728 24.0906 18.6483 23.312 18.2126 22.6197C18.0855 22.4177 17.9246 22.2365 17.7739 22.0388C18.3593 21.9303 18.9463 21.8531 19.5163 21.7096C21.047 21.3243 22.4154 20.6535 23.3479 19.3285C24.0329 18.3551 24.3463 17.2371 24.4844 16.0717C24.5917 15.166 24.6222 14.2574 24.4297 13.3557C24.2361 12.4485 23.8404 11.6366 23.2283 10.936C23.0776 10.7635 23.0476 10.6241 23.1222 10.4009C23.5247 9.1952 23.3562 8.01437 22.9042 6.85744C22.8783 6.79121 22.7657 6.72948 22.6857 6.71761C22.1536 6.63875 21.652 6.78774 21.1853 7.00625C20.429 7.3606 19.6976 7.76694 18.9487 8.1374C18.8223 8.19998 18.6478 8.24263 18.5171 8.20982C16.1694 7.62185 13.826 7.62245 11.478 8.20922C11.3408 8.24348 11.1464 8.19811 11.0233 8.12036C10.0711 7.51815 9.06446 7.04186 7.97001 6.7556C7.9511 6.75068 7.93272 6.74364 7.91364 6.73983C7.22551 6.60026 7.09971 6.67827 6.9036 7.33839C6.58682 8.40416 6.5296 9.46638 6.90668 10.5328C6.93627 10.6164 6.90129 10.763 6.8404 10.8316C5.60397 12.2244 5.31096 13.8766 5.46559 15.6577C5.55933 16.7376 5.81162 17.7741 6.29869 18.7488C6.97176 20.0956 8.1118 20.9191 9.4926 21.4027C10.3596 21.7064 11.2785 21.8641 12.1882 22.0908C12.1953 22.0472 12.2006 22.0818 12.1857 22.097C11.7173 22.581 11.4556 23.1619 11.3453 23.8188C11.3314 23.9019 11.2736 24.0206 11.2069 24.0456C10.1648 24.4344 9.11706 24.6389 8.08683 24.0153C7.61867 23.732 7.27683 23.3225 7.00101 22.8571C6.56852 22.1271 5.95864 21.5978 5.13923 21.3568C4.84434 21.27 4.50823 21.2921 4.19359 21.3102C3.97909 21.3227 3.90862 21.482 4.05256 21.6605C4.18529 21.8248 4.32025 22.0107 4.4978 22.112C5.28625 22.5622 5.72798 23.2812 6.08881 24.0641C6.30382 24.5305 6.48812 25.0068 6.88675 25.3654C7.52169 25.9367 8.29115 26.1523 9.11612 26.1882C9.81434 26.2185 10.515 26.1944 11.2472 26.1944C11.2461 26.1847 11.2607 26.2574 11.2617 26.3303C11.2721 27.1144 11.2828 27.8986 11.2884 28.6828C11.294 29.4502 10.8293 29.7674 10.0952 29.5147C6.28706 28.2039 3.4928 25.7215 1.62819 22.2134C0.224053 19.5714 -0.219733 16.7339 0.0973914 13.772C0.429397 10.671 1.66702 7.95654 3.73193 5.62784C5.89022 3.19392 8.57714 1.57605 11.7882 0.928821C16.4534 -0.0115433 20.7141 0.932636 24.4444 3.90525C27.2725 6.15882 29.0227 9.09091 29.7291 12.6233C29.8331 13.1438 29.8727 13.6769 29.944 14.2038C29.9579 14.307 29.9811 14.409 30 14.5116V16.2546Z" fill="#666666"/>
</svg>
