<svg width="104" height="24" xmlns="http://www.w3.org/2000/svg">
<path d="M29.1954 18.8223H27V5.83503H34.6423V7.62944H29.1954V11.6891H34.2995V13.4924H29.1954V18.8223Z" fill="#0b8ee6"/>
<path d="M42.8015 18.8223L42.3661 17.4543H42.292C41.7979 18.0525 41.3008 18.4611 40.8006 18.6802C40.3004 18.8934 39.6581 19 38.8738 19C37.8672 19 37.0798 18.7394 36.5116 18.2183C35.9497 17.6971 35.6687 16.9598 35.6687 16.0063C35.6687 14.9937 36.0608 14.2297 36.8451 13.7145C37.6294 13.1992 38.8244 12.9179 40.43 12.8706L42.1993 12.8173V12.2931C42.1993 11.6654 42.045 11.1975 41.7362 10.8896C41.4336 10.5757 40.9611 10.4188 40.3189 10.4188C39.794 10.4188 39.2906 10.4928 38.809 10.6409C38.3273 10.7889 37.8641 10.9636 37.4194 11.165L36.7154 9.67259C37.2712 9.39425 37.8795 9.18401 38.5403 9.04188C39.2011 8.89382 39.8248 8.8198 40.4115 8.8198C41.7146 8.8198 42.6965 9.09222 43.3573 9.63706C44.0242 10.1819 44.3577 11.0376 44.3577 12.2043V18.8223H42.8015ZM39.5593 17.401C40.3498 17.401 40.9828 17.1908 41.4583 16.7703C41.94 16.3439 42.1808 15.7487 42.1808 14.9848V14.132L40.8654 14.1853C39.8403 14.2208 39.093 14.3866 38.6237 14.6827C38.1605 14.9729 37.9289 15.42 37.9289 16.0241C37.9289 16.4624 38.0648 16.8029 38.3365 17.0457C38.6082 17.2826 39.0158 17.401 39.5593 17.401Z" fill="#0b8ee6"/>
<path d="M49.0987 18.8223H46.9218V8.99746H49.0987V18.8223ZM46.7921 6.39467C46.7921 6.02157 46.8971 5.73435 47.1071 5.53299C47.3232 5.33164 47.6289 5.23096 48.0242 5.23096C48.407 5.23096 48.7035 5.33164 48.9134 5.53299C49.1296 5.73435 49.2377 6.02157 49.2377 6.39467C49.2377 6.75 49.1296 7.0313 48.9134 7.23858C48.7035 7.43993 48.407 7.54061 48.0242 7.54061C47.6289 7.54061 47.3232 7.43993 47.1071 7.23858C46.8971 7.0313 46.7921 6.75 46.7921 6.39467Z" fill="#0b8ee6"/>
<path d="M56.9429 8.8198C57.3814 8.8198 57.7427 8.84941 58.0268 8.90863L57.8137 10.8541C57.5049 10.783 57.1838 10.7475 56.8503 10.7475C55.9795 10.7475 55.2724 11.0199 54.729 11.5647C54.1917 12.1096 53.9231 12.8173 53.9231 13.6878V18.8223H51.7462V8.99746H53.4506L53.7378 10.7297H53.849C54.1886 10.1434 54.6302 9.67851 55.1736 9.33503C55.7233 8.99154 56.313 8.8198 56.9429 8.8198Z" fill="#0b8ee6"/>
<path d="M61.6376 18.8223H59.4607V5H61.6376V18.8223Z" fill="#0b8ee6"/>
<path d="M68.7593 19C67.166 19 65.9185 18.5558 65.0169 17.6675C64.1214 16.7733 63.6737 15.5444 63.6737 13.981C63.6737 12.3761 64.0906 11.1146 64.9243 10.1967C65.758 9.27876 66.9035 8.8198 68.361 8.8198C69.7134 8.8198 70.7818 9.21362 71.5661 10.0013C72.3504 10.7889 72.7426 11.8727 72.7426 13.2525V14.3807H65.9154C65.9463 15.3342 66.215 16.0685 66.7214 16.5838C67.2278 17.0931 67.941 17.3477 68.8612 17.3477C69.4664 17.3477 70.0284 17.2944 70.5471 17.1878C71.0721 17.0753 71.634 16.8917 72.2331 16.6371V18.3338C71.702 18.5766 71.1647 18.7483 70.6212 18.849C70.0778 18.9497 69.4571 19 68.7593 19ZM68.361 10.401C67.6693 10.401 67.1135 10.6113 66.6936 11.0317C66.2798 11.4522 66.0328 12.0651 65.9525 12.8706H70.6027C70.5904 12.0592 70.3866 11.4463 69.9913 11.0317C69.5961 10.6113 69.0526 10.401 68.361 10.401Z" fill="#0b8ee6"/>
<path d="M81.1519 18.8223L80.7165 17.4543H80.6424C80.1483 18.0525 79.6512 18.4611 79.151 18.6802C78.6507 18.8934 78.0085 19 77.2242 19C76.2176 19 75.4302 18.7394 74.862 18.2183C74.3 17.6971 74.0191 16.9598 74.0191 16.0063C74.0191 14.9937 74.4112 14.2297 75.1955 13.7145C75.9798 13.1992 77.1748 12.9179 78.7804 12.8706L80.5497 12.8173V12.2931C80.5497 11.6654 80.3953 11.1975 80.0866 10.8896C79.784 10.5757 79.3115 10.4188 78.6693 10.4188C78.1443 10.4188 77.641 10.4928 77.1593 10.6409C76.6776 10.7889 76.2145 10.9636 75.7698 11.165L75.0658 9.67259C75.6216 9.39425 76.2299 9.18401 76.8907 9.04188C77.5515 8.89382 78.1752 8.8198 78.7619 8.8198C80.0649 8.8198 81.0469 9.09222 81.7077 9.63706C82.3746 10.1819 82.7081 11.0376 82.7081 12.2043V18.8223H81.1519ZM77.9097 17.401C78.7001 17.401 79.3331 17.1908 79.8087 16.7703C80.2904 16.3439 80.5312 15.7487 80.5312 14.9848V14.132L79.2158 14.1853C78.1907 14.2208 77.4434 14.3866 76.9741 14.6827C76.5109 14.9729 76.2793 15.42 76.2793 16.0241C76.2793 16.4624 76.4152 16.8029 76.6869 17.0457C76.9586 17.2826 77.3662 17.401 77.9097 17.401Z" fill="#0b8ee6"/>
<path d="M90.469 8.8198C90.9074 8.8198 91.2687 8.84941 91.5528 8.90863L91.3397 10.8541C91.0309 10.783 90.7098 10.7475 90.3763 10.7475C89.5056 10.7475 88.7985 11.0199 88.255 11.5647C87.7177 12.1096 87.4491 12.8173 87.4491 13.6878V18.8223H85.2722V8.99746H86.9767L87.2638 10.7297H87.375C87.7146 10.1434 88.1562 9.67851 88.6996 9.33503C89.2493 8.99154 89.839 8.8198 90.469 8.8198Z" fill="#0b8ee6"/>
<path d="M102 18.8223H99.8138V12.7817C99.8138 12.0237 99.6533 11.4581 99.3322 11.085C99.0172 10.7119 98.5139 10.5254 97.8222 10.5254C96.9021 10.5254 96.2289 10.786 95.8028 11.3071C95.3767 11.8283 95.1636 12.7018 95.1636 13.9277V18.8223H92.9867V8.99746H94.6912L94.9969 10.2855H95.108C95.4168 9.81768 95.8553 9.45643 96.4234 9.20178C96.9916 8.94712 97.6215 8.8198 98.3132 8.8198C100.771 8.8198 102 10.019 102 12.4175V18.8223Z" fill="#0b8ee6"/>
<path d="M21.1992 7.20015C21.1992 7.86289 20.6618 8.40015 19.9988 8.40015H13.9997C13.3367 8.40015 12.7992 7.86289 12.7992 7.20015C12.7992 6.5374 13.3367 6.00015 13.9997 6.00015L19.9988 6.00015C20.6618 6.00015 21.1992 6.5374 21.1992 7.20015Z" fill="#02b4f0"/>
<path d="M21.1992 12.3415C21.1992 13.0042 20.6618 13.5415 19.9988 13.5415L3.19968 13.5415C2.53669 13.5415 1.99922 13.0042 1.99922 12.3415C1.99922 11.6788 2.53668 11.1415 3.19968 11.1415L19.9988 11.1415C20.6618 11.1415 21.1992 11.6788 21.1992 12.3415Z" fill="#02b4f0"/>
<path d="M21.1992 17.4816C21.1992 18.1444 20.6618 18.6816 19.9988 18.6816H7.99968C7.33669 18.6816 6.79922 18.1444 6.79922 17.4816C6.79922 16.8189 7.33668 16.2816 7.99968 16.2816H19.9988C20.6618 16.2816 21.1992 16.8189 21.1992 17.4816Z" fill="#02b4f0"/>
</svg>
