<svg width="24" height="24" viewBox="0 0 24 24" fill="none" xmlns="http://www.w3.org/2000/svg">
<path fill-rule="evenodd" clip-rule="evenodd" d="M24 12.6361C23.9568 13.0067 23.9191 13.378 23.8695 13.7478C23.6502 15.3791 23.0923 16.8911 22.2186 18.2821C21.2421 19.8366 19.9975 21.135 18.4407 22.1231C17.6267 22.6397 16.7585 23.0453 15.846 23.3517C15.3405 23.5213 14.9908 23.2595 14.9883 22.7275C14.9833 21.6817 14.99 20.6358 14.9853 19.5899C14.9824 18.9527 14.9186 18.3251 14.5701 17.767C14.4684 17.6042 14.3397 17.4581 14.2191 17.2988C14.6875 17.2113 15.157 17.149 15.6131 17.0333C16.8376 16.7228 17.9323 16.182 18.6783 15.1139C19.2263 14.3293 19.4771 13.4281 19.5875 12.4887C19.6734 11.7586 19.6978 11.0261 19.5438 10.2993C19.3889 9.56795 19.0724 8.91347 18.5827 8.34874C18.462 8.20965 18.4381 8.09727 18.4978 7.91737C18.8197 6.94547 18.685 5.99359 18.3234 5.06099C18.3026 5.0076 18.2126 4.95784 18.1486 4.94827C17.7229 4.8847 17.3216 5.0048 16.9483 5.18094C16.3432 5.46659 15.7581 5.79413 15.159 6.09277C15.0578 6.14321 14.9183 6.17759 14.8136 6.15114C12.9355 5.67718 11.0608 5.67766 9.18244 6.15066C9.07263 6.17828 8.91711 6.14171 8.81865 6.07903C8.05687 5.59359 7.25157 5.20965 6.376 4.97889C6.36088 4.97493 6.34617 4.96926 6.33092 4.96618C5.78041 4.85367 5.67977 4.91656 5.52288 5.44868C5.26945 6.3078 5.22368 7.16406 5.52534 8.02373C5.54902 8.09112 5.52103 8.2093 5.47232 8.26453C4.48318 9.38729 4.24877 10.7191 4.37247 12.1549C4.44746 13.0254 4.6493 13.861 5.03895 14.6467C5.57741 15.7323 6.48944 16.3962 7.59408 16.786C8.28765 17.0308 9.02282 17.1579 9.7506 17.3407C9.75621 17.3055 9.76045 17.3333 9.74854 17.3457C9.37381 17.7358 9.16444 18.204 9.07625 18.7336C9.0651 18.8006 9.01892 18.8963 8.96548 18.9164C8.13186 19.2298 7.29365 19.3947 6.46947 18.892C6.09494 18.6636 5.82146 18.3336 5.60081 17.9584C5.25481 17.3699 4.76691 16.9433 4.11138 16.7489C3.87547 16.679 3.60658 16.6968 3.35487 16.7114C3.18327 16.7215 3.1269 16.8499 3.24205 16.9938C3.34823 17.1262 3.4562 17.2761 3.59824 17.3577C4.229 17.7206 4.58239 18.3003 4.87105 18.9313C5.04305 19.3073 5.1905 19.6912 5.5094 19.9803C6.01735 20.4409 6.63292 20.6146 7.2929 20.6435C7.85147 20.668 8.41197 20.6486 8.99778 20.6486C8.99689 20.6407 9.00858 20.6994 9.00934 20.7581C9.01768 21.3902 9.02624 22.0223 9.03075 22.6545C9.0352 23.2731 8.66348 23.5288 8.07616 23.3251C5.02964 22.2684 2.79424 20.2674 1.30256 17.4394C0.179243 15.3098 -0.175787 13.0224 0.0779131 10.6349C0.343518 8.13507 1.33362 5.94697 2.98554 4.0698C4.71218 2.10781 6.86172 0.803645 9.4306 0.28191C13.1627 -0.476121 16.5713 0.284985 19.5555 2.68122C21.818 4.49783 23.2182 6.86139 23.7833 9.70889C23.8665 10.1284 23.8981 10.5582 23.9552 10.9829C23.9663 11.0661 23.9849 11.1483 24 11.231V12.6361Z" fill="#333333"/>
</svg>
